<svg xmlns="http://www.w3.org/2000/svg" height="207" preserveAspectRatio="none" style="width:842px;height:207px" width="842"><ellipse cx="265.942" cy="21.742" fill="#F8F8F8" rx="17.849" ry="13.242" stroke="#383838" stroke-width=".5"/><text font-family="Tahoma, sans-serif" font-size="12" font-weight="bold" lengthAdjust="spacingAndGlyphs" textLength="21" x="255.442" y="25.484">src</text><ellipse cx="337.049" cy="183.242" fill="#F8F8F8" rx="28.456" ry="13.242" stroke="#383838" stroke-width=".5"/><text font-family="Tahoma, sans-serif" font-size="12" lengthAdjust="spacingAndGlyphs" textLength="36" x="319.049" y="186.984">config</text><rect fill="#F8F8F8" height="34.484" rx="3" ry="3" width="132" x="35.093" y="111" stroke="#000" stroke-width=".5"/><text font-family="Tahoma, sans-serif" font-size="12" lengthAdjust="spacingAndGlyphs" textLength="112" x="45.093" y="133.006">models/guildConfig</text><rect fill="#F8F8F8" height="34.484" rx="3" ry="3" width="122" x="179.093" y="111" stroke="#000" stroke-width=".5"/><text font-family="Tahoma, sans-serif" font-size="12" lengthAdjust="spacingAndGlyphs" textLength="102" x="189.093" y="133.006">models/guildData</text><rect fill="#F8F8F8" height="34.484" rx="3" ry="3" width="130" x="313.093" y="111" stroke="#000" stroke-width=".5"/><text font-family="Tahoma, sans-serif" font-size="12" lengthAdjust="spacingAndGlyphs" textLength="110" x="323.093" y="133.006">models/userConfig</text><rect fill="#F8F8F8" height="34.484" rx="3" ry="3" width="120" x="455.093" y="111" stroke="#000" stroke-width=".5"/><text font-family="Tahoma, sans-serif" font-size="12" lengthAdjust="spacingAndGlyphs" textLength="100" x="465.093" y="133.006">models/userData</text><ellipse cx="350.864" cy="21.354" fill="#F8F8F8" rx="54.771" ry="13.354" stroke="#383838" stroke-width=".5"/><text font-family="Tahoma, sans-serif" font-size="12" lengthAdjust="spacingAndGlyphs" textLength="74" x="313.864" y="25.096">modules/bot</text><ellipse cx="308.883" cy="73.242" fill="#F8F8F8" rx="51.79" ry="13.242" stroke="#383838" stroke-width=".5"/><text font-family="Tahoma, sans-serif" font-size="12" lengthAdjust="spacingAndGlyphs" textLength="69" x="274.383" y="76.984">modules/db</text><ellipse cx="658.045" cy="128.09" fill="#F8F8F8" rx="70.952" ry="16.59" stroke="#383838" stroke-width=".5"/><text font-family="Tahoma, sans-serif" font-size="12" lengthAdjust="spacingAndGlyphs" textLength="115" x="600.545" y="131.833">modules/messages</text><path d="M405.959 22.577C533.254 24.499 830.778 40.007 735.093 145c-24.371 26.743-273.184 34.469-364.569 36.414" fill="none" id="prefix__modules/bot-&gt;config" stroke="#000" stroke-width=".5"/><path stroke="#000" stroke-width=".5" d="M365.512 181.518l9.08 3.814-4.081-3.916 3.917-4.082-8.916 4.184z"/><path d="M340.495 34.991l-17.779 20.953" fill="none" id="prefix__modules/bot-&gt;modules/db" stroke="#000" stroke-width=".5"/><path stroke="#000" stroke-width=".5" d="M319.254 60.025l8.872-4.276-5.638.463-.462-5.638-2.772 9.451z"/><path d="M256.798 73.072C184.09 73.031 58.102 77.906 29.094 111c-9.961 11.364-10.028 22.696 0 34 17.996 20.287 198.333 31.555 274.418 35.438" fill="none" id="prefix__modules/db-&gt;config" stroke="#000" stroke-width=".5"/><path stroke="#000" stroke-width=".5" d="M308.806 180.705l-8.786-4.45 3.792 4.197-4.197 3.792 9.191-3.539z"/><path d="M274.279 82.871l-104.925 26.736" fill="none" id="prefix__modules/db-&gt;_models_guildConfig" stroke="#000" stroke-width=".5"/><path stroke="#000" stroke-width=".5" d="M164.223 110.914l9.709 1.655-4.864-2.889 2.889-4.864-7.734 6.098z"/><path d="M294.122 85.5l-28.978 22.258" fill="none" id="prefix__modules/db-&gt;_models_guildData" stroke="#000" stroke-width=".5"/><path stroke="#000" stroke-width=".5" d="M261.056 110.898l9.574-2.31-5.609-.735.736-5.609-4.701 8.654z"/><path d="M324.065 85.5l28.978 22.258" fill="none" id="prefix__modules/db-&gt;_models_userConfig" stroke="#000" stroke-width=".5"/><path stroke="#000" stroke-width=".5" d="M357.131 110.898l-4.701-8.654.736 5.609-5.609.735 9.574 2.31z"/><path d="M343.573 82.871l106.322 27.355" fill="none" id="prefix__modules/db-&gt;_models_userData" stroke="#000" stroke-width=".5"/><path stroke="#000" stroke-width=".5" d="M455.046 111.551l-7.718-6.118 2.876 4.871-4.871 2.876 9.713-1.629z"/><path d="M354.963 79.25c54.189 6.431 146.986 18.161 226.13 31.75 7.217 1.239 14.788 2.661 22.25 4.135" fill="none" id="prefix__modules/db-&gt;modules/messages" stroke="#000" stroke-width=".5"/><path stroke="#000" stroke-width=".5" d="M608.485 116.162l-8.042-5.686 3.139 4.706-4.706 3.138 9.609-2.158z"/><path d="M608.052 139.81c-8.96 1.818-18.223 3.621-26.959 5.19-75.729 13.6-165.28 26.326-211.996 32.713" fill="none" id="prefix__modules/messages-&gt;config" stroke="#000" stroke-width=".5"/><path stroke="#000" stroke-width=".5" d="M363.89 178.423l9.458 2.746-4.504-3.422 3.423-4.504-8.377 5.18z"/><path d="M248.201 24.475C180.758 32.566-50.775 66.531 19.094 145c18.7 21.004 206.595 31.923 284.467 35.575" fill="none" id="prefix__&lt;b&gt;src&lt;/b&gt;-&gt;config" stroke="#000" stroke-width="1"/><path stroke="#000" d="M308.973 180.826l-8.805-4.413 3.81 4.181-4.18 3.811 9.175-3.579z"/><path d="M284.355 21.5h6.599" fill="none" id="prefix__&lt;b&gt;src&lt;/b&gt;-&gt;modules/bot" stroke="#000" stroke-width="1"/><path stroke="#000" d="M296.087 21.5l-9-4 4 4-4 4 9-4z"/><path d="M275.213 32.998l20.052 23.083" fill="none" id="prefix__&lt;b&gt;src&lt;/b&gt;-&gt;modules/db" stroke="#000" stroke-width="1"/><path stroke="#000" d="M298.78 60.128l-2.884-9.417-.396 5.643-5.643-.395 8.923 4.169z"/><script type="text/plantuml"><![CDATA[MD5=[4ced68b32862701bc1dbcec5fc12db96]
@startuml

scale max 1920 width
top to bottom direction

skinparam nodesep 12
skinparam ranksep 25
skinparam monochrome true
skinparam shadowing false
skinparam defaultFontName Tahoma
skinparam defaultFontSize 12
skinparam roundCorner 6
skinparam dpi 150
skinparam arrowColor black
skinparam arrowThickness 0.5
skinparam packageTitleAlignment left

skinparam usecase {
  borderThickness 0.5
}

skinparam rectangle {
  borderThickness 0.5
}

skinparam component {
  borderThickness 1
}


(<b>src</b>)
(config)
rectangle "models/guildConfig" as _models_guildConfig
rectangle "models/guildData" as _models_guildData
rectangle "models/userConfig" as _models_userConfig
rectangle "models/userData" as _models_userData
(modules/bot)
(modules/db)
(modules/messages)


(modules/bot) --> (config)
(modules/bot) --> (modules/db)
(modules/db) --> (config)
(modules/db) --> _models_guildConfig
(modules/db) --> _models_guildData
(modules/db) --> _models_userConfig
(modules/db) --> _models_userData
(modules/db) --> (modules/messages)
(modules/messages) --> (config)
(<b>src</b>) -[thickness=1]> (config)
(<b>src</b>) -[thickness=1]> (modules/bot)
(<b>src</b>) -[thickness=1]> (modules/db)

@enduml


' View and edit on https://arkit.pro
]]></script></svg>