<?xml version="1.0" encoding="UTF-8" standalone="no"?><svg xmlns="http://www.w3.org/2000/svg" xmlns:xlink="http://www.w3.org/1999/xlink" contentScriptType="application/ecmascript" contentStyleType="text/css" height="204px" preserveAspectRatio="none" style="width:502px;height:204px;" version="1.1" viewBox="0 0 502 204" width="502px" zoomAndPan="magnify"><defs/><g><ellipse cx="265.1572" cy="21.242" fill="#F8F8F8" rx="17.8492" ry="13.242" style="stroke: #383838; stroke-width: 0.5;"/><text fill="#000000" font-family="Tahoma, sans-serif" font-size="12" font-weight="bold" lengthAdjust="spacingAndGlyphs" textLength="21" x="254.6572" y="24.9842">src</text><ellipse cx="346.243" cy="21.242" fill="#F8F8F8" rx="16.435" ry="13.242" style="stroke: #383838; stroke-width: 0.5;"/><text fill="#000000" font-family="Tahoma, sans-serif" font-size="12" lengthAdjust="spacingAndGlyphs" textLength="19" x="336.743" y="24.9842">bot</text><ellipse cx="431.2638" cy="180.242" fill="#F8F8F8" rx="28.4558" ry="13.242" style="stroke: #383838; stroke-width: 0.5;"/><text fill="#000000" font-family="Tahoma, sans-serif" font-size="12" lengthAdjust="spacingAndGlyphs" textLength="36" x="413.2638" y="183.9842">config</text><ellipse cx="265.2514" cy="71.1547" fill="#F8F8F8" rx="14.4434" ry="12.1547" style="stroke: #383838; stroke-width: 0.5;"/><text fill="#000000" font-family="Tahoma, sans-serif" font-size="12" lengthAdjust="spacingAndGlyphs" textLength="14" x="258.2514" y="74.8969">db</text><!--MD5=[3892153815f0b23a503434c560325708]
entity _guildConfig--><rect fill="#F8F8F8" height="34.4844" rx="3" ry="3" style="stroke: #000000; stroke-width: 0.5;" width="84" x="25.3075" y="108"/><text fill="#000000" font-family="Tahoma, sans-serif" font-size="12" lengthAdjust="spacingAndGlyphs" textLength="64" x="35.3075" y="130.0059">guildConfig</text><!--MD5=[4208744f63633dae2d638e96f3aa29d4]
entity _guildData--><rect fill="#F8F8F8" height="34.4844" rx="3" ry="3" style="stroke: #000000; stroke-width: 0.5;" width="74" x="121.308" y="108"/><text fill="#000000" font-family="Tahoma, sans-serif" font-size="12" lengthAdjust="spacingAndGlyphs" textLength="54" x="131.308" y="130.0059">guildData</text><ellipse cx="431.2344" cy="125.242" fill="#F8F8F8" rx="45.4264" ry="13.242" style="stroke: #383838; stroke-width: 0.5;"/><text fill="#000000" font-family="Tahoma, sans-serif" font-size="12" lengthAdjust="spacingAndGlyphs" textLength="60" x="401.2344" y="128.9842">messages</text><!--MD5=[cdbe947cf05d35c00d4c5c7f0a71b1da]
entity _userConfig--><rect fill="#F8F8F8" height="34.4844" rx="3" ry="3" style="stroke: #000000; stroke-width: 0.5;" width="82" x="207.308" y="108"/><text fill="#000000" font-family="Tahoma, sans-serif" font-size="12" lengthAdjust="spacingAndGlyphs" textLength="62" x="217.308" y="130.0059">userConfig</text><!--MD5=[b2f28ea5f7689dbfc77a41654f315f35]
entity _userData--><rect fill="#F8F8F8" height="34.4844" rx="3" ry="3" style="stroke: #000000; stroke-width: 0.5;" width="72" x="301.308" y="108"/><text fill="#000000" font-family="Tahoma, sans-serif" font-size="12" lengthAdjust="spacingAndGlyphs" textLength="52" x="311.308" y="130.0059">userData</text><!--MD5=[7d5324f94db439f94fb529253cef72f0]
link bot to config--><path d="M361.883,26.3 C391.861,35.519 456.944,60.323 483.308,108 C490.62,121.224 490.234,128.57 483.308,142 C477.441,153.3736 466.284,162.0158 455.803,168.0762 " fill="none" id="bot-&gt;config" style="stroke: #000000; stroke-width: 0.5;"/><polygon fill="#000000" points="451.37,170.5159,461.1833,169.6796,455.7501,168.1046,457.3251,162.6714,451.37,170.5159" style="stroke: #000000; stroke-width: 0.5;"/><!--MD5=[64fe372491cce42d5ebeb4a29682ddc0]
link bot to db--><path d="M333.651,29.5 C319.457,37.911 296.42,51.563 281.069,60.66 " fill="none" id="bot-&gt;db" style="stroke: #000000; stroke-width: 0.5;"/><polygon fill="#000000" points="276.57,63.326,286.3519,62.1797,280.8716,60.7773,282.274,55.297,276.57,63.326" style="stroke: #000000; stroke-width: 0.5;"/><!--MD5=[124868e042e6d6c81498dc7124f602be]
link bot to messages--><path d="M355.084,32.532 C370.036,50.474 400.53,87.066 418.078,108.1242 " fill="none" id="bot-&gt;messages" style="stroke: #000000; stroke-width: 0.5;"/><polygon fill="#000000" points="421.406,112.1185,418.7175,102.6437,418.2052,108.2773,412.5716,107.765,421.406,112.1185" style="stroke: #000000; stroke-width: 0.5;"/><!--MD5=[b262554ca0a0000bd563818491466618]
link db to _guildConfig--><path d="M251.554,74.885 C225.022,80.541 165.001,93.783 115.308,108 C114.943,108.1042 114.578,108.2094 114.211,108.3156 " fill="none" id="db-&gt;_guildConfig" style="stroke: #000000; stroke-width: 0.5;"/><polygon fill="#000000" points="109.388,109.7453,119.1538,111.0218,114.1817,108.3239,116.8796,103.3518,109.388,109.7453" style="stroke: #000000; stroke-width: 0.5;"/><!--MD5=[0b261c99f4a945675c6d4293da7b467e]
link db to _guildData--><path d="M253.033,77.965 C239.21,84.683 216.071,95.9279 196.123,105.6222 " fill="none" id="db-&gt;_guildData" style="stroke: #000000; stroke-width: 0.5;"/><polygon fill="#000000" points="191.394,107.9207,201.2371,107.5841,195.891,105.7351,197.7401,100.3889,191.394,107.9207" style="stroke: #000000; stroke-width: 0.5;"/><!--MD5=[83ea2912cbe0063aed4f2374f6aa9c3d]
link db to messages--><path d="M278.611,76.167 C304.161,84.171 360.806,101.9152 397.46,113.3972 " fill="none" id="db-&gt;messages" style="stroke: #000000; stroke-width: 0.5;"/><polygon fill="#000000" points="402.272,114.9044,394.8788,108.3975,397.5005,113.4101,392.4879,116.0318,402.272,114.9044" style="stroke: #000000; stroke-width: 0.5;"/><!--MD5=[0f1c90627a438cde48dcfe09692e98e7]
link db to _userConfig--><path d="M261.785,82.774 C259.894,88.559 257.496,95.8951 255.248,102.7706 " fill="none" id="db-&gt;_userConfig" style="stroke: #000000; stroke-width: 0.5;"/><polygon fill="#000000" points="253.569,107.9052,260.1681,100.5942,255.123,103.1528,252.5643,98.1077,253.569,107.9052" style="stroke: #000000; stroke-width: 0.5;"/><!--MD5=[df26a11fc4e5f2088d7a68871ac9da60]
link db to _userData--><path d="M275.623,79.45 C284.846,86.111 298.762,96.1614 311.043,105.0311 " fill="none" id="db-&gt;_userData" style="stroke: #000000; stroke-width: 0.5;"/><polygon fill="#000000" points="315.136,107.9873,310.1814,99.4754,311.0824,105.0601,305.4978,105.9611,315.136,107.9873" style="stroke: #000000; stroke-width: 0.5;"/><!--MD5=[dc771dbee376ea573914d2209f47d6fe]
link messages to config--><path d="M431.308,138.0265 C431.308,144.9747 431.308,153.8378 431.308,161.5423 " fill="none" id="messages-&gt;config" style="stroke: #000000; stroke-width: 0.5;"/><polygon fill="#000000" points="431.308,166.6533,435.308,157.6533,431.308,161.6533,427.308,157.6533,431.308,166.6533" style="stroke: #000000; stroke-width: 0.5;"/><!--MD5=[a53087a911552aba9648088612928c30]
link <b>src</b> to bot--><path d="M283.343,21 C297.07,21 310.798,21 324.525,21 " fill="none" id="&lt;b&gt;src&lt;/b&gt;-&gt;bot" style="stroke: #000000; stroke-width: 1.0;"/><polygon fill="#000000" points="329.582,21,320.582,17,324.582,21,320.582,25,329.582,21" style="stroke: #000000; stroke-width: 1.0;"/><!--MD5=[3e308a5dc5afafd661ce296838b44d74]
link <b>src</b> to config--><path d="M247.439,23.928 C180.091,31.828 -51.0705,65.018 19.3075,142 C44.6618,169.7333 303.936,176.8503 397.701,178.524 " fill="none" id="&lt;b&gt;src&lt;/b&gt;-&gt;config" style="stroke: #000000; stroke-width: 1.0;"/><polygon fill="#000000" points="402.838,178.6132,393.9091,174.457,397.8388,178.5261,393.7697,182.4557,402.838,178.6132" style="stroke: #000000; stroke-width: 1.0;"/><!--MD5=[db472c3377e9a42585e52ce50db16f6d]
link <b>src</b> to db--><path d="M265.308,34.112 C265.308,40.014 265.308,47.199 265.308,53.585 " fill="none" id="&lt;b&gt;src&lt;/b&gt;-&gt;db" style="stroke: #000000; stroke-width: 1.0;"/><polygon fill="#000000" points="265.308,58.716,269.308,49.716,265.308,53.716,261.308,49.716,265.308,58.716" style="stroke: #000000; stroke-width: 1.0;"/><script type="text/plantuml"><![CDATA[MD5=[e6b4ae695ffa4f26989a5910ba827180]
@startuml

scale max 1920 width
top to bottom direction

skinparam nodesep 12
skinparam ranksep 25
skinparam monochrome true
skinparam shadowing false
skinparam defaultFontName Tahoma
skinparam defaultFontSize 12
skinparam roundCorner 6
skinparam dpi 150
skinparam arrowColor black
skinparam arrowThickness 0.5
skinparam packageTitleAlignment left

skinparam usecase {
  borderThickness 0.5
}

skinparam rectangle {
  borderThickness 0.5
}

skinparam component {
  borderThickness 1
}


(<b>src</b>)
(bot)
(config)
(db)
rectangle "guildConfig" as _guildConfig
rectangle "guildData" as _guildData
(messages)
rectangle "userConfig" as _userConfig
rectangle "userData" as _userData


(bot) --> (config)
(bot) --> (db)
(bot) --> (messages)
(db) --> _guildConfig
(db) --> _guildData
(db) --> (messages)
(db) --> _userConfig
(db) --> _userData
(messages) --> (config)
(<b>src</b>) -[thickness=1]> (bot)
(<b>src</b>) -[thickness=1]> (config)
(<b>src</b>) -[thickness=1]> (db)

@enduml


' View and edit on https://arkit.pro
]]></script></g></svg>