<?xml version="1.0" encoding="UTF-8" standalone="no"?><svg xmlns="http://www.w3.org/2000/svg"
  xmlns:xlink="http://www.w3.org/1999/xlink" contentScriptType="application/ecmascript" contentStyleType="text/css"
  height="207px" preserveAspectRatio="none" style="width:842px;height:207px;" version="1.1" viewBox="0 0 842 207"
  width="842px" zoomAndPan="magnify">
  <defs />
  <g>
    <ellipse cx="265.9422" cy="21.742" fill="#F8F8F8" rx="17.8492" ry="13.242"
      style="stroke: #383838; stroke-width: 0.5;" /><text fill="#000000" font-family="Tahoma, sans-serif" font-size="12"
      font-weight="bold" lengthAdjust="spacingAndGlyphs" textLength="21" x="255.4422" y="25.4842">src</text>
    <ellipse cx="337.0488" cy="183.242" fill="#F8F8F8" rx="28.4558" ry="13.242"
      style="stroke: #383838; stroke-width: 0.5;" /><text fill="#000000" font-family="Tahoma, sans-serif" font-size="12"
      lengthAdjust="spacingAndGlyphs" textLength="36" x="319.0488" y="186.9842">config</text>
    <!--MD5=[e89cb3d651ad2a6a591ef3194ebcca21]
entity _models_guildConfig-->
    <rect fill="#F8F8F8" height="34.4844" rx="3" ry="3" style="stroke: #000000; stroke-width: 0.5;" width="132"
      x="35.0935" y="111" /><text fill="#000000" font-family="Tahoma, sans-serif" font-size="12"
      lengthAdjust="spacingAndGlyphs" textLength="112" x="45.0935" y="133.0059">models/guildConfig</text>
    <!--MD5=[47294ddc332c2aeff8bb5a9e9221514e]
entity _models_guildData-->
    <rect fill="#F8F8F8" height="34.4844" rx="3" ry="3" style="stroke: #000000; stroke-width: 0.5;" width="122"
      x="179.093" y="111" /><text fill="#000000" font-family="Tahoma, sans-serif" font-size="12"
      lengthAdjust="spacingAndGlyphs" textLength="102" x="189.093" y="133.0059">models/guildData</text>
    <!--MD5=[668fb606f2e4d4b44741fca63f0ea521]
entity _models_userConfig-->
    <rect fill="#F8F8F8" height="34.4844" rx="3" ry="3" style="stroke: #000000; stroke-width: 0.5;" width="130"
      x="313.093" y="111" /><text fill="#000000" font-family="Tahoma, sans-serif" font-size="12"
      lengthAdjust="spacingAndGlyphs" textLength="110" x="323.093" y="133.0059">models/userConfig</text>
    <!--MD5=[cfbd38191c2772d4f40c33dbc4a38bbf]
entity _models_userData-->
    <rect fill="#F8F8F8" height="34.4844" rx="3" ry="3" style="stroke: #000000; stroke-width: 0.5;" width="120"
      x="455.093" y="111" /><text fill="#000000" font-family="Tahoma, sans-serif" font-size="12"
      lengthAdjust="spacingAndGlyphs" textLength="100" x="465.093" y="133.0059">models/userData</text>
    <ellipse cx="350.864" cy="21.3542" fill="#F8F8F8" rx="54.771" ry="13.3542"
      style="stroke: #383838; stroke-width: 0.5;" /><text fill="#000000" font-family="Tahoma, sans-serif" font-size="12"
      lengthAdjust="spacingAndGlyphs" textLength="74" x="313.864" y="25.0964">modules/bot</text>
    <ellipse cx="308.8834" cy="73.242" fill="#F8F8F8" rx="51.7904" ry="13.242"
      style="stroke: #383838; stroke-width: 0.5;" /><text fill="#000000" font-family="Tahoma, sans-serif" font-size="12"
      lengthAdjust="spacingAndGlyphs" textLength="69" x="274.3834" y="76.9842">modules/db</text>
    <ellipse cx="658.0451" cy="128.0904" fill="#F8F8F8" rx="70.9521" ry="16.5904"
      style="stroke: #383838; stroke-width: 0.5;" /><text fill="#000000" font-family="Tahoma, sans-serif" font-size="12"
      lengthAdjust="spacingAndGlyphs" textLength="115" x="600.5451" y="131.8326">modules/messages</text>
    <!--MD5=[133eb2d16b1e2ad2e3d3126b8e262a63]
link modules/bot to config-->
    <path
      d="M405.959,22.577 C533.254,24.499 830.778,40.007 735.093,145 C710.722,171.7426 461.909,179.4689 370.524,181.4141 "
      fill="none" id="modules/bot-&gt;config" style="stroke: #000000; stroke-width: 0.5;" />
    <polygon fill="#000000"
      points="365.512,181.5184,374.5924,185.3324,370.5109,181.4155,374.4278,177.3341,365.512,181.5184"
      style="stroke: #000000; stroke-width: 0.5;" />
    <!--MD5=[2b893cabbacdb484a010dec1a05b5cf4]
link modules/bot to modules/db-->
    <path d="M340.495,34.991 C335.102,41.347 328.484,49.147 322.716,55.944 " fill="none" id="modules/bot-&gt;modules/db"
      style="stroke: #000000; stroke-width: 0.5;" />
    <polygon fill="#000000" points="319.254,60.025,328.1263,55.7492,322.4884,56.212,322.0255,50.5741,319.254,60.025"
      style="stroke: #000000; stroke-width: 0.5;" />
    <!--MD5=[3998e8af1e5e7a6937bad8ce2e2789fb]
link modules/db to config-->
    <path
      d="M256.798,73.072 C184.09,73.031 58.1018,77.906 29.0935,111 C19.1328,122.3635 19.0658,133.6956 29.0935,145 C47.0896,165.2874 227.427,176.5552 303.512,180.4379 "
      fill="none" id="modules/db-&gt;config" style="stroke: #000000; stroke-width: 0.5;" />
    <polygon fill="#000000"
      points="308.806,180.7048,300.0198,176.2548,303.8124,180.4519,299.6152,184.2445,308.806,180.7048"
      style="stroke: #000000; stroke-width: 0.5;" />
    <!--MD5=[c7bb6f1d42fc29ccd6a0cca51eef389a]
link modules/db to _models_guildConfig-->
    <path d="M274.279,82.871 C245.73,90.146 204.451,100.6638 169.354,109.6067 " fill="none"
      id="modules/db-&gt;_models_guildConfig" style="stroke: #000000; stroke-width: 0.5;" />
    <polygon fill="#000000"
      points="164.223,110.9142,173.9319,112.5686,169.0683,109.6799,171.957,104.8162,164.223,110.9142"
      style="stroke: #000000; stroke-width: 0.5;" />
    <!--MD5=[6fe2218fa7423ccf20837c99db94fd5f]
link modules/db to _models_guildData-->
    <path d="M294.122,85.5 C285.659,92 274.86,100.2954 265.144,107.7583 " fill="none"
      id="modules/db-&gt;_models_guildData" style="stroke: #000000; stroke-width: 0.5;" />
    <polygon fill="#000000"
      points="261.056,110.8982,270.6301,108.5881,265.0213,107.8525,265.757,102.2437,261.056,110.8982"
      style="stroke: #000000; stroke-width: 0.5;" />
    <!--MD5=[0f8128922581f04c47dabe708d0d9318]
link modules/db to _models_userConfig-->
    <path d="M324.065,85.5 C332.528,92 343.327,100.2954 353.043,107.7583 " fill="none"
      id="modules/db-&gt;_models_userConfig" style="stroke: #000000; stroke-width: 0.5;" />
    <polygon fill="#000000"
      points="357.131,110.8982,352.43,102.2437,353.1657,107.8525,347.5569,108.5881,357.131,110.8982"
      style="stroke: #000000; stroke-width: 0.5;" />
    <!--MD5=[9323fad93b8a2d7b5c469ee9c473ee1c]
link modules/db to _models_userData-->
    <path d="M343.573,82.871 C372.503,90.314 414.631,101.1529 449.895,110.2257 " fill="none"
      id="modules/db-&gt;_models_userData" style="stroke: #000000; stroke-width: 0.5;" />
    <polygon fill="#000000"
      points="455.046,111.5509,447.328,105.4326,450.204,110.3039,445.3328,113.1798,455.046,111.5509"
      style="stroke: #000000; stroke-width: 0.5;" />
    <!--MD5=[b9ca8fce737f63cc10e4c6522244751b]
link modules/db to modules/messages-->
    <path
      d="M354.963,79.25 C409.152,85.681 501.949,97.4113 581.093,111 C588.31,112.239 595.881,113.661 603.343,115.1349 "
      fill="none" id="modules/db-&gt;modules/messages" style="stroke: #000000; stroke-width: 0.5;" />
    <polygon fill="#000000" points="608.485,116.162,600.4435,110.4756,603.582,115.182,598.8756,118.3205,608.485,116.162"
      style="stroke: #000000; stroke-width: 0.5;" />
    <!--MD5=[73bb008684a3646560e32748b1484d31]
link modules/messages to config-->
    <path
      d="M608.052,139.8097 C599.092,141.6278 589.829,143.4314 581.093,145 C505.364,158.5995 415.813,171.3262 369.097,177.7126 "
      fill="none" id="modules/messages-&gt;config" style="stroke: #000000; stroke-width: 0.5;" />
    <polygon fill="#000000"
      points="363.89,178.4225,373.348,181.1695,368.8441,177.7468,372.2669,173.2429,363.89,178.4225"
      style="stroke: #000000; stroke-width: 0.5;" />
    <!--MD5=[3e308a5dc5afafd661ce296838b44d74]
link <b>src</b> to config-->
    <path
      d="M248.201,24.475 C180.758,32.566 -50.7745,66.531 19.0935,145 C37.7949,166.0036 225.689,176.923 303.561,180.5752 "
      fill="none" id="&lt;b&gt;src&lt;/b&gt;-&gt;config" style="stroke: #000000; stroke-width: 1.0;" />
    <polygon fill="#000000"
      points="308.973,180.8256,300.1678,176.4133,303.9784,180.5942,299.7975,184.4047,308.973,180.8256"
      style="stroke: #000000; stroke-width: 1.0;" />
    <!--MD5=[9b9d8e76c365dcd2656524e70d2489ae]
link <b>src</b> to modules/bot-->
    <path d="M284.355,21.5 C286.555,21.5 288.754,21.5 290.954,21.5 " fill="none"
      id="&lt;b&gt;src&lt;/b&gt;-&gt;modules/bot" style="stroke: #000000; stroke-width: 1.0;" />
    <polygon fill="#000000" points="296.087,21.5,287.087,17.5,291.087,21.5,287.087,25.5,296.087,21.5"
      style="stroke: #000000; stroke-width: 1.0;" />
    <!--MD5=[a623b95dcddc6c2cc2cf75a71e14cefd]
link <b>src</b> to modules/db-->
    <path d="M275.213,32.998 C281.037,39.702 288.7,48.524 295.265,56.081 " fill="none"
      id="&lt;b&gt;src&lt;/b&gt;-&gt;modules/db" style="stroke: #000000; stroke-width: 1.0;" />
    <polygon fill="#000000" points="298.78,60.128,295.8956,50.711,295.5002,56.354,289.8572,55.9586,298.78,60.128"
      style="stroke: #000000; stroke-width: 1.0;" />
    <script type="text/plantuml"><![CDATA[MD5=[4ced68b32862701bc1dbcec5fc12db96]
@startuml

scale max 1920 width
top to bottom direction

skinparam nodesep 12
skinparam ranksep 25
skinparam monochrome true
skinparam shadowing false
skinparam defaultFontName Tahoma
skinparam defaultFontSize 12
skinparam roundCorner 6
skinparam dpi 150
skinparam arrowColor black
skinparam arrowThickness 0.5
skinparam packageTitleAlignment left

skinparam usecase {
  borderThickness 0.5
}

skinparam rectangle {
  borderThickness 0.5
}

skinparam component {
  borderThickness 1
}


(<b>src</b>)
(config)
rectangle "models/guildConfig" as _models_guildConfig
rectangle "models/guildData" as _models_guildData
rectangle "models/userConfig" as _models_userConfig
rectangle "models/userData" as _models_userData
(modules/bot)
(modules/db)
(modules/messages)


(modules/bot) --> (config)
(modules/bot) --> (modules/db)
(modules/db) --> (config)
(modules/db) --> _models_guildConfig
(modules/db) --> _models_guildData
(modules/db) --> _models_userConfig
(modules/db) --> _models_userData
(modules/db) --> (modules/messages)
(modules/messages) --> (config)
(<b>src</b>) -[thickness=1]> (config)
(<b>src</b>) -[thickness=1]> (modules/bot)
(<b>src</b>) -[thickness=1]> (modules/db)

@enduml


' View and edit on https://arkit.pro
]]></script>
  </g>
</svg>