<?xml version="1.0" encoding="UTF-8" standalone="no"?><svg xmlns="http://www.w3.org/2000/svg" xmlns:xlink="http://www.w3.org/1999/xlink" contentScriptType="application/ecmascript" contentStyleType="text/css" height="340px" preserveAspectRatio="none" style="width:951px;height:340px;" version="1.1" viewBox="0 0 951 340" width="951px" zoomAndPan="magnify"><defs/><g><!--MD5=[a6f11bb19cee6b13000111f5ad685e8b]
cluster Dependencies--><path d="M471.5,246 L573.5,246 A4.5,4.5 0 0 1 576.5,249 L583.5,265.9688 L926.5,265.9688 A3,3 0 0 1 929.5,268.9688 L929.5,325 A3,3 0 0 1 926.5,328 L471.5,328 A3,3 0 0 1 468.5,325 L468.5,249 A3,3 0 0 1 471.5,246 " fill="#FFFFFF" style="stroke: #000000; stroke-width: 1.5;"/><line style="stroke: #000000; stroke-width: 1.5;" x1="468.5" x2="583.5" y1="265.9688" y2="265.9688"/><text fill="#000000" font-family="Tahoma, sans-serif" font-size="12" font-weight="bold" lengthAdjust="spacingAndGlyphs" textLength="102" x="472.5" y="259.1387">Dependencies</text><!--MD5=[82b5a202f6d660fa8e98a122f91e5835]
entity discord--><rect fill="#F8F8F8" height="33.9688" rx="3" ry="3" style="stroke: #383838; stroke-width: 1.0;" width="66" x="661.5" y="278"/><rect fill="#F8F8F8" height="5" style="stroke: #383838; stroke-width: 1.0;" width="10" x="656.5" y="283"/><rect fill="#F8F8F8" height="5" style="stroke: #383838; stroke-width: 1.0;" width="10" x="656.5" y="301.9688"/><text fill="#000000" font-family="Tahoma, sans-serif" font-size="12" lengthAdjust="spacingAndGlyphs" textLength="46" x="671.5" y="299.1387">discord</text><!--MD5=[b84d8dbe3cf51322a9824c71d57d534f]
entity dotenv--><rect fill="#F8F8F8" height="33.9688" rx="3" ry="3" style="stroke: #383838; stroke-width: 1.0;" width="63" x="584" y="278"/><rect fill="#F8F8F8" height="5" style="stroke: #383838; stroke-width: 1.0;" width="10" x="579" y="283"/><rect fill="#F8F8F8" height="5" style="stroke: #383838; stroke-width: 1.0;" width="10" x="579" y="301.9688"/><text fill="#000000" font-family="Tahoma, sans-serif" font-size="12" lengthAdjust="spacingAndGlyphs" textLength="43" x="594" y="299.1387">dotenv</text><!--MD5=[e3bfa7961d47c56a847600d8be1ad6f4]
entity mongoose--><rect fill="#F8F8F8" height="33.9688" rx="3" ry="3" style="stroke: #383838; stroke-width: 1.0;" width="85" x="485" y="278"/><rect fill="#F8F8F8" height="5" style="stroke: #383838; stroke-width: 1.0;" width="10" x="480" y="283"/><rect fill="#F8F8F8" height="5" style="stroke: #383838; stroke-width: 1.0;" width="10" x="480" y="301.9688"/><text fill="#000000" font-family="Tahoma, sans-serif" font-size="12" lengthAdjust="spacingAndGlyphs" textLength="65" x="495" y="299.1387">mongoose</text><!--MD5=[c0cd64a1b408ece1273c15cbb42ecb48]
entity pino--><rect fill="#F8F8F8" height="33.9688" rx="3" ry="3" style="stroke: #383838; stroke-width: 1.0;" width="46" x="741.5" y="278"/><rect fill="#F8F8F8" height="5" style="stroke: #383838; stroke-width: 1.0;" width="10" x="736.5" y="283"/><rect fill="#F8F8F8" height="5" style="stroke: #383838; stroke-width: 1.0;" width="10" x="736.5" y="301.9688"/><text fill="#000000" font-family="Tahoma, sans-serif" font-size="12" lengthAdjust="spacingAndGlyphs" textLength="26" x="751.5" y="299.1387">pino</text><!--MD5=[91257f328435e99416850f9b3f967678]
entity wokcommands--><rect fill="#F8F8F8" height="33.9688" rx="3" ry="3" style="stroke: #383838; stroke-width: 1.0;" width="112" x="801.5" y="278"/><rect fill="#F8F8F8" height="5" style="stroke: #383838; stroke-width: 1.0;" width="10" x="796.5" y="283"/><rect fill="#F8F8F8" height="5" style="stroke: #383838; stroke-width: 1.0;" width="10" x="796.5" y="301.9688"/><text fill="#000000" font-family="Tahoma, sans-serif" font-size="12" lengthAdjust="spacingAndGlyphs" textLength="92" x="811.5" y="299.1387">wokcommands</text><ellipse cx="686.2635" cy="21.3774" fill="#F8F8F8" rx="19.2635" ry="12.8774" style="stroke: #383838; stroke-width: 0.5;"/><text fill="#000000" font-family="Tahoma, sans-serif" font-size="12" font-weight="bold" lengthAdjust="spacingAndGlyphs" textLength="23" x="674.7635" y="24.8618">src</text><ellipse cx="691.663" cy="188.8774" fill="#F8F8F8" rx="29.163" ry="12.8774" style="stroke: #383838; stroke-width: 0.5;"/><text fill="#000000" font-family="Tahoma, sans-serif" font-size="12" lengthAdjust="spacingAndGlyphs" textLength="37" x="673.163" y="192.3618">config</text><!--MD5=[e89cb3d651ad2a6a591ef3194ebcca21]
entity _models_guildConfig--><rect fill="#F8F8F8" height="33.9688" rx="3" ry="3" style="stroke: #000000; stroke-width: 0.5;" width="137" x="6" y="115"/><text fill="#000000" font-family="Tahoma, sans-serif" font-size="12" lengthAdjust="spacingAndGlyphs" textLength="117" x="16" y="136.1387">models/guildConfig</text><!--MD5=[47294ddc332c2aeff8bb5a9e9221514e]
entity _models_guildData--><rect fill="#F8F8F8" height="33.9688" rx="3" ry="3" style="stroke: #000000; stroke-width: 0.5;" width="128" x="476.5" y="115"/><text fill="#000000" font-family="Tahoma, sans-serif" font-size="12" lengthAdjust="spacingAndGlyphs" textLength="108" x="486.5" y="136.1387">models/guildData</text><!--MD5=[668fb606f2e4d4b44741fca63f0ea521]
entity _models_userConfig--><rect fill="#F8F8F8" height="33.9688" rx="3" ry="3" style="stroke: #000000; stroke-width: 0.5;" width="135" x="157" y="115"/><text fill="#000000" font-family="Tahoma, sans-serif" font-size="12" lengthAdjust="spacingAndGlyphs" textLength="115" x="167" y="136.1387">models/userConfig</text><!--MD5=[cfbd38191c2772d4f40c33dbc4a38bbf]
entity _models_userData--><rect fill="#F8F8F8" height="33.9688" rx="3" ry="3" style="stroke: #000000; stroke-width: 0.5;" width="126" x="306.5" y="115"/><text fill="#000000" font-family="Tahoma, sans-serif" font-size="12" lengthAdjust="spacingAndGlyphs" textLength="106" x="316.5" y="136.1387">models/userData</text><ellipse cx="784.4787" cy="21.3957" fill="#F8F8F8" rx="54.9787" ry="13.3957" style="stroke: #383838; stroke-width: 0.5;"/><text fill="#000000" font-family="Tahoma, sans-serif" font-size="12" lengthAdjust="spacingAndGlyphs" textLength="77" x="745.9787" y="24.8801">modules/bot</text><ellipse cx="611.6551" cy="75.031" fill="#F8F8F8" rx="53.1551" ry="13.031" style="stroke: #383838; stroke-width: 0.5;"/><text fill="#000000" font-family="Tahoma, sans-serif" font-size="12" lengthAdjust="spacingAndGlyphs" textLength="72" x="575.6551" y="78.5154">modules/db</text><ellipse cx="811.4229" cy="131.8846" fill="#F8F8F8" rx="72.4229" ry="16.8846" style="stroke: #383838; stroke-width: 0.5;"/><text fill="#000000" font-family="Tahoma, sans-serif" font-size="12" lengthAdjust="spacingAndGlyphs" textLength="120" x="751.4229" y="135.369">modules/messages</text><!--MD5=[730103a9e4a14f69d69e2494cb58a724]
link config to discord--><path d="M691.856,202.339 C692.357,219.699 693.276,251.5811 693.888,272.7874 " fill="none" id="config-&gt;discord" style="stroke: #000000; stroke-width: 0.5;"/><polygon fill="#000000" points="694.037,277.9335,697.7757,268.8218,693.8927,272.9356,689.779,269.0527,694.037,277.9335" style="stroke: #000000; stroke-width: 0.5;"/><!--MD5=[637a40a99d58a9326022a4d3930d8f1a]
link config to dotenv--><path d="M682.216,201.715 C674.634,211.36 663.706,225.44 654.5,238 C646.043,249.5384 636.887,262.6509 629.573,273.2855 " fill="none" id="config-&gt;dotenv" style="stroke: #000000; stroke-width: 0.5;"/><polygon fill="#000000" points="626.559,277.6797,634.9488,272.5211,629.3875,273.5567,628.352,267.9954,626.559,277.6797" style="stroke: #000000; stroke-width: 0.5;"/><!--MD5=[d5a2f077eb2d29f016cffabe55188a9d]
link _models_guildConfig to mongoose--><path d="M119.592,149.026 C205.58,179.587 392.237,245.9264 480.039,277.132 " fill="none" id="_models_guildConfig-&gt;mongoose" style="stroke: #000000; stroke-width: 0.5;"/><polygon fill="#000000" points="484.912,278.8637,477.771,272.081,480.2006,277.1894,475.0922,279.6191,484.912,278.8637" style="stroke: #000000; stroke-width: 0.5;"/><!--MD5=[49602b1988d8978dd0434d18ac037685]
link _models_guildData to mongoose--><path d="M539.206,149.026 C536.853,178.168 531.873,239.844 529.231,272.5659 " fill="none" id="_models_guildData-&gt;mongoose" style="stroke: #000000; stroke-width: 0.5;"/><polygon fill="#000000" points="528.827,277.5596,533.5388,268.9109,529.2296,272.5758,525.5648,268.2667,528.827,277.5596" style="stroke: #000000; stroke-width: 0.5;"/><!--MD5=[e64a710cd89100b5ca9bd0381eb84d2d]
link _models_userConfig to mongoose--><path d="M254.661,149.026 C311.119,179.025 432.46,243.5 492.45,275.3762 " fill="none" id="_models_userConfig-&gt;mongoose" style="stroke: #000000; stroke-width: 0.5;"/><polygon fill="#000000" points="497.012,277.8,490.9426,270.0436,492.597,275.4531,487.1875,277.1076,497.012,277.8" style="stroke: #000000; stroke-width: 0.5;"/><!--MD5=[0ff0502d04b9c0a2397e17c48896015a]
link _models_userData to mongoose--><path d="M379.85,149.159 C393.184,169.312 417.731,204.247 443.5,230 C460.356,246.8459 481.751,263.0847 498.73,274.9898 " fill="none" id="_models_userData-&gt;mongoose" style="stroke: #000000; stroke-width: 0.5;"/><polygon fill="#000000" points="502.946,277.9209,497.8399,269.499,498.8407,275.0666,493.2731,276.0674,502.946,277.9209" style="stroke: #000000; stroke-width: 0.5;"/><!--MD5=[133eb2d16b1e2ad2e3d3126b8e262a63]
link modules/bot to config--><path d="M777.223,35.025 C766.938,52.767 747.606,86.26 731.5,115 C720.71,134.255 708.557,156.519 700.508,171.347 " fill="none" id="modules/bot-&gt;config" style="stroke: #000000; stroke-width: 0.5;"/><polygon fill="#000000" points="697.943,176.076,705.7495,170.0711,700.3264,171.6806,698.7169,166.2576,697.943,176.076" style="stroke: #000000; stroke-width: 0.5;"/><!--MD5=[9224c579802c65ec3b46ec09f31b3da9]
link modules/bot to discord--><path d="M813.104,33.182 C849.163,48.722 906.5,81.254 906.5,131 C906.5,131 906.5,131 906.5,190 C906.5,229.683 766.995,215.223 734.5,238 C721.717,246.9599 711.563,261.361 704.684,273.3154 " fill="none" id="modules/bot-&gt;discord" style="stroke: #000000; stroke-width: 0.5;"/><polygon fill="#000000" points="702.119,277.9281,709.9884,272.0059,704.5487,273.5581,702.9965,268.1184,702.119,277.9281" style="stroke: #000000; stroke-width: 0.5;"/><!--MD5=[2b893cabbacdb484a010dec1a05b5cf4]
link modules/bot to modules/db--><path d="M751.144,32.43 C721.721,41.189 678.904,53.935 648.45,63 " fill="none" id="modules/bot-&gt;modules/db" style="stroke: #000000; stroke-width: 0.5;"/><polygon fill="#000000" points="643.294,64.535,653.0609,65.8029,648.0865,63.1094,650.78,58.135,643.294,64.535" style="stroke: #000000; stroke-width: 0.5;"/><!--MD5=[83cb7128f60bfdfe886f04847043a9af]
link modules/bot to modules/messages--><path d="M787.703,35.372 C792.281,53.769 800.748,87.795 806.25,109.904 " fill="none" id="modules/bot-&gt;modules/messages" style="stroke: #000000; stroke-width: 0.5;"/><polygon fill="#000000" points="807.513,114.978,809.2222,105.2786,806.306,110.1259,801.4588,107.2097,807.513,114.978" style="stroke: #000000; stroke-width: 0.5;"/><!--MD5=[e35d21ba23752b1a6a150ff5fa76ad84]
link modules/bot to wokcommands--><path d="M836.452,25.999 C863.962,30.497 896.339,40.412 917.5,62 C939.766,84.715 936.5,99.192 936.5,131 C936.5,131 936.5,131 936.5,190 C936.5,225.152 907.528,255.8694 884.673,274.6318 " fill="none" id="modules/bot-&gt;wokcommands" style="stroke: #000000; stroke-width: 0.5;"/><polygon fill="#000000" points="880.775,277.7666,890.2954,275.2444,884.6717,274.6336,885.2826,269.0098,880.775,277.7666" style="stroke: #000000; stroke-width: 0.5;"/><!--MD5=[3998e8af1e5e7a6937bad8ce2e2789fb]
link modules/db to config--><path d="M620.061,87.986 C634.572,108.301 663.995,149.494 680.186,172.161 " fill="none" id="modules/db-&gt;config" style="stroke: #000000; stroke-width: 0.5;"/><polygon fill="#000000" points="683.24,176.436,681.2644,166.7873,680.3341,172.3671,674.7543,171.4368,683.24,176.436" style="stroke: #000000; stroke-width: 0.5;"/><!--MD5=[47b2b516cbb677c5374cd062ff8c1e6e]
link modules/db to discord--><path d="M615.487,88.259 C622.913,110.896 639.56,160.715 655.5,202 C664.981,226.556 676.924,254.3233 685.08,272.8681 " fill="none" id="modules/db-&gt;discord" style="stroke: #000000; stroke-width: 0.5;"/><polygon fill="#000000" points="687.274,277.8438,687.3024,267.995,685.2565,273.2689,679.9826,271.223,687.274,277.8438" style="stroke: #000000; stroke-width: 0.5;"/><!--MD5=[c7bb6f1d42fc29ccd6a0cca51eef389a]
link modules/db to _models_guildConfig--><path d="M559.981,78.228 C474.378,82.403 297.599,93.041 149.5,115 C149.105,115.059 148.709,115.118 148.312,115.178 " fill="none" id="modules/db-&gt;_models_guildConfig" style="stroke: #000000; stroke-width: 0.5;"/><polygon fill="#000000" points="143.102,116.003,152.6173,118.5446,148.0403,115.2202,151.3648,110.6433,143.102,116.003" style="stroke: #000000; stroke-width: 0.5;"/><!--MD5=[6fe2218fa7423ccf20837c99db94fd5f]
link modules/db to _models_guildData--><path d="M596.443,87.664 C587.387,94.679 575.639,103.78 565.248,111.829 " fill="none" id="modules/db-&gt;_models_guildData" style="stroke: #000000; stroke-width: 0.5;"/><polygon fill="#000000" points="561.191,114.972,570.7552,112.6214,565.1434,111.9095,565.8553,106.2976,561.191,114.972" style="stroke: #000000; stroke-width: 0.5;"/><!--MD5=[0f8128922581f04c47dabe708d0d9318]
link modules/db to _models_userConfig--><path d="M563.742,80.682 C502.366,86.994 392.62,99.277 299.5,115 C298.762,115.125 298.019,115.252 297.274,115.381 " fill="none" id="modules/db-&gt;_models_userConfig" style="stroke: #000000; stroke-width: 0.5;"/><polygon fill="#000000" points="292.313,116.261,301.8731,118.6283,297.2362,115.3881,300.4764,110.7512,292.313,116.261" style="stroke: #000000; stroke-width: 0.5;"/><!--MD5=[9323fad93b8a2d7b5c469ee9c473ee1c]
link modules/db to _models_userData--><path d="M574.482,84.413 C538.274,92.642 482.269,105.371 437.944,115.445 " fill="none" id="modules/db-&gt;_models_userData" style="stroke: #000000; stroke-width: 0.5;"/><polygon fill="#000000" points="432.873,116.597,442.5358,118.5021,437.7486,115.4885,440.7622,110.7012,432.873,116.597" style="stroke: #000000; stroke-width: 0.5;"/><!--MD5=[b9ca8fce737f63cc10e4c6522244751b]
link modules/db to modules/messages--><path d="M642.68,85.706 C673.746,94.619 721.901,107.903 758.874,117.782 " fill="none" id="modules/db-&gt;modules/messages" style="stroke: #000000; stroke-width: 0.5;"/><polygon fill="#000000" points="763.784,119.092,756.1188,112.9078,758.9529,117.8035,754.0572,120.6376,763.784,119.092" style="stroke: #000000; stroke-width: 0.5;"/><!--MD5=[f9edc22682bae62382cd7ba48ef83762]
link modules/messages to modules/db--><path d="M769.219,118.129 C734.653,108.327 686.171,95.028 652.072,86.013 " fill="none" id="modules/messages-&gt;modules/db" style="stroke: #000000; stroke-width: 0.5;"/><polygon fill="#000000" points="647.149,84.715,654.8326,90.8763,651.9839,85.9891,656.8712,83.1404,647.149,84.715" style="stroke: #000000; stroke-width: 0.5;"/><!--MD5=[0c7e3aeba268dfae76f7144caef1fce3]
link modules/db to mongoose--><path d="M567.157,82.245 C530.08,88.483 481.396,99.396 469.5,115 C432.102,164.054 481.428,238.128 509.89,273.6255 " fill="none" id="modules/db-&gt;mongoose" style="stroke: #000000; stroke-width: 0.5;"/><polygon fill="#000000" points="513.25,277.7589,510.6767,268.2522,510.096,273.8791,504.4691,273.2985,513.25,277.7589" style="stroke: #000000; stroke-width: 0.5;"/><!--MD5=[73bb008684a3646560e32748b1484d31]
link modules/messages to config--><path d="M779.971,147.451 C759.914,156.644 734.33,168.37 715.839,176.845 " fill="none" id="modules/messages-&gt;config" style="stroke: #000000; stroke-width: 0.5;"/><polygon fill="#000000" points="710.822,179.144,720.6702,179.0314,715.3675,177.0612,717.3378,171.7586,710.822,179.144" style="stroke: #000000; stroke-width: 0.5;"/><!--MD5=[d98807945e79d78111089747308cdab1]
link modules/messages to discord--><path d="M799.697,148.965 C784.533,169.506 757.429,206.32 734.5,238 C725.966,249.7913 716.495,263.0423 708.913,273.6933 " fill="none" id="modules/messages-&gt;discord" style="stroke: #000000; stroke-width: 0.5;"/><polygon fill="#000000" points="705.999,277.7879,714.4757,272.7734,708.8976,273.7138,707.9572,268.1357,705.999,277.7879" style="stroke: #000000; stroke-width: 0.5;"/><!--MD5=[ae280f0c849e31b6c807c8679f03e568]
link modules/messages to pino--><path d="M806.822,149.026 C798.314,178.168 780.309,239.844 770.757,272.5659 " fill="none" id="modules/messages-&gt;pino" style="stroke: #000000; stroke-width: 0.5;"/><polygon fill="#000000" points="769.299,277.5596,775.6613,270.0415,770.7004,272.76,767.9819,267.7992,769.299,277.5596" style="stroke: #000000; stroke-width: 0.5;"/><!--MD5=[3e308a5dc5afafd661ce296838b44d74]
link <b>src</b> to config--><path d="M686.868,34.67 C687.745,63.721 689.965,137.199 690.98,170.779 " fill="none" id="&lt;b&gt;src&lt;/b&gt;-&gt;config" style="stroke: #000000; stroke-width: 1.0;"/><polygon fill="#000000" points="691.132,175.813,694.8576,166.696,690.9806,170.8153,686.8612,166.9383,691.132,175.813" style="stroke: #000000; stroke-width: 1.0;"/><!--MD5=[9b9d8e76c365dcd2656524e70d2489ae]
link <b>src</b> to modules/bot--><path d="M706.023,21.5 C712.091,21.5 718.158,21.5 724.225,21.5 " fill="none" id="&lt;b&gt;src&lt;/b&gt;-&gt;modules/bot" style="stroke: #000000; stroke-width: 1.0;"/><polygon fill="#000000" points="729.321,21.5,720.321,17.5,724.321,21.5,720.321,25.5,729.321,21.5" style="stroke: #000000; stroke-width: 1.0;"/><!--MD5=[a623b95dcddc6c2cc2cf75a71e14cefd]
link <b>src</b> to modules/db--><path d="M673.436,31.471 C662.124,39.238 645.558,50.614 632.404,59.646 " fill="none" id="&lt;b&gt;src&lt;/b&gt;-&gt;modules/db" style="stroke: #000000; stroke-width: 1.0;"/><polygon fill="#000000" points="628.087,62.61,637.7708,60.8145,632.2093,59.7804,633.2434,54.2189,628.087,62.61" style="stroke: #000000; stroke-width: 1.0;"/><script type="text/plantuml"><![CDATA[MD5=[a75f8fae1ea1e5610203443c81ad922d]
@startuml

scale max 1920 width
top to bottom direction

skinparam nodesep 14
skinparam ranksep 27
skinparam monochrome true
skinparam shadowing false
skinparam defaultFontName Tahoma
skinparam defaultFontSize 12
skinparam roundCorner 6
skinparam dpi 150
skinparam arrowColor black
skinparam arrowThickness 0.5
skinparam packageTitleAlignment left

skinparam usecase {
  borderThickness 0.5
}

skinparam rectangle {
  borderThickness 0.5
}

skinparam component {
  borderThickness 1
}


(<b>src</b>)
(config)
rectangle "models/guildConfig" as _models_guildConfig
rectangle "models/guildData" as _models_guildData
rectangle "models/userConfig" as _models_userConfig
rectangle "models/userData" as _models_userData
(modules/bot)
(modules/db)
(modules/messages)

package "Dependencies" {
  [discord]
  [dotenv]
  [mongoose]
  [pino]
  [wokcommands]
}

(config) --> [discord]
(config) --> [dotenv]
_models_guildConfig ----> [mongoose]
_models_guildData ----> [mongoose]
_models_userConfig ----> [mongoose]
_models_userData ----> [mongoose]
(modules/bot) --> (config)
(modules/bot) ----> [discord]
(modules/bot) --> (modules/db)
(modules/bot) --> (modules/messages)
(modules/bot) ----> [wokcommands]
(modules/db) --> (config)
(modules/db) ----> [discord]
(modules/db) --> _models_guildConfig
(modules/db) --> _models_guildData
(modules/db) --> _models_userConfig
(modules/db) --> _models_userData
(modules/db) --> (modules/messages)
(modules/db) ----> [mongoose]
(modules/messages) --> (config)
(modules/messages) ----> [discord]
(modules/messages) --> (modules/db)
(modules/messages) ----> [pino]
(<b>src</b>) -[thickness=1]> (config)
(<b>src</b>) -[thickness=1]> (modules/bot)
(<b>src</b>) -[thickness=1]> (modules/db)

@enduml


' View and edit on https://arkit.pro
]]></script></g></svg>