<?xml version="1.0" encoding="UTF-8" standalone="no"?><svg xmlns="http://www.w3.org/2000/svg" xmlns:xlink="http://www.w3.org/1999/xlink" contentScriptType="application/ecmascript" contentStyleType="text/css" height="214px" preserveAspectRatio="none" style="width:825px;height:214px;" version="1.1" viewBox="0 0 825 214" width="825px" zoomAndPan="magnify"><defs/><g><ellipse cx="401.0805" cy="21.3774" fill="#F8F8F8" rx="19.2635" ry="12.8774" style="stroke: #383838; stroke-width: 0.5;"/><text fill="#000000" font-family="Tahoma, sans-serif" font-size="12" font-weight="bold" lengthAdjust="spacingAndGlyphs" textLength="23" x="389.5805" y="24.8618">src</text><ellipse cx="345.48" cy="190.8774" fill="#F8F8F8" rx="29.163" ry="12.8774" style="stroke: #383838; stroke-width: 0.5;"/><text fill="#000000" font-family="Tahoma, sans-serif" font-size="12" lengthAdjust="spacingAndGlyphs" textLength="37" x="326.98" y="194.3618">config</text><!--MD5=[e89cb3d651ad2a6a591ef3194ebcca21]
entity _models_guildConfig--><rect fill="#F8F8F8" height="33.9688" rx="3" ry="3" style="stroke: #000000; stroke-width: 0.5;" width="137" x="29.8166" y="119"/><text fill="#000000" font-family="Tahoma, sans-serif" font-size="12" lengthAdjust="spacingAndGlyphs" textLength="117" x="39.8166" y="140.1387">models/guildConfig</text><!--MD5=[47294ddc332c2aeff8bb5a9e9221514e]
entity _models_guildData--><rect fill="#F8F8F8" height="33.9688" rx="3" ry="3" style="stroke: #000000; stroke-width: 0.5;" width="128" x="180.317" y="119"/><text fill="#000000" font-family="Tahoma, sans-serif" font-size="12" lengthAdjust="spacingAndGlyphs" textLength="108" x="190.317" y="140.1387">models/guildData</text><!--MD5=[668fb606f2e4d4b44741fca63f0ea521]
entity _models_userConfig--><rect fill="#F8F8F8" height="33.9688" rx="3" ry="3" style="stroke: #000000; stroke-width: 0.5;" width="135" x="321.817" y="119"/><text fill="#000000" font-family="Tahoma, sans-serif" font-size="12" lengthAdjust="spacingAndGlyphs" textLength="115" x="331.817" y="140.1387">models/userConfig</text><!--MD5=[cfbd38191c2772d4f40c33dbc4a38bbf]
entity _models_userData--><rect fill="#F8F8F8" height="33.9688" rx="3" ry="3" style="stroke: #000000; stroke-width: 0.5;" width="126" x="470.317" y="119"/><text fill="#000000" font-family="Tahoma, sans-serif" font-size="12" lengthAdjust="spacingAndGlyphs" textLength="106" x="480.317" y="140.1387">models/userData</text><ellipse cx="570.2957" cy="21.3957" fill="#F8F8F8" rx="54.9787" ry="13.3957" style="stroke: #383838; stroke-width: 0.5;"/><text fill="#000000" font-family="Tahoma, sans-serif" font-size="12" lengthAdjust="spacingAndGlyphs" textLength="77" x="531.7957" y="24.8801">modules/bot</text><!--MD5=[6f212ac7842da82386c32ff334a0a8e2]
entity _modules_commandHandler--><rect fill="#F8F8F8" height="33.9688" rx="3" ry="3" style="stroke: #000000; stroke-width: 0.5;" width="184" x="478.317" y="60"/><text fill="#000000" font-family="Tahoma, sans-serif" font-size="12" lengthAdjust="spacingAndGlyphs" textLength="164" x="488.317" y="81.1387">modules/commandHandler</text><ellipse cx="401.4721" cy="77.031" fill="#F8F8F8" rx="53.1551" ry="13.031" style="stroke: #383838; stroke-width: 0.5;"/><text fill="#000000" font-family="Tahoma, sans-serif" font-size="12" lengthAdjust="spacingAndGlyphs" textLength="72" x="365.4721" y="80.5154">modules/db</text><ellipse cx="682.2399" cy="135.8846" fill="#F8F8F8" rx="72.4229" ry="16.8846" style="stroke: #383838; stroke-width: 0.5;"/><text fill="#000000" font-family="Tahoma, sans-serif" font-size="12" lengthAdjust="spacingAndGlyphs" textLength="120" x="622.2399" y="139.369">modules/messages</text><!--MD5=[133eb2d16b1e2ad2e3d3126b8e262a63]
link modules/bot to config--><path d="M607.486,31.57 C676.752,50.098 813.979,95.446 761.317,153 C735.736,180.9567 474.534,187.9274 379.583,189.5439 " fill="none" id="modules/bot-&gt;config" style="stroke: #000000; stroke-width: 0.5;"/><polygon fill="#000000" points="374.378,189.63,383.4419,193.4829,379.3773,189.5486,383.3117,185.484,374.378,189.63" style="stroke: #000000; stroke-width: 0.5;"/><!--MD5=[6b42ddcc1976056bbd42698cb24c48e0]
link modules/bot to _modules_commandHandler--><path d="M570.317,35.179 C570.317,40.972 570.317,47.997 570.317,54.575 " fill="none" id="modules/bot-&gt;_modules_commandHandler" style="stroke: #000000; stroke-width: 0.5;"/><polygon fill="#000000" points="570.317,59.957,574.317,50.957,570.317,54.957,566.317,50.957,570.317,59.957" style="stroke: #000000; stroke-width: 0.5;"/><!--MD5=[2b893cabbacdb484a010dec1a05b5cf4]
link modules/bot to modules/db--><path d="M538.529,32.563 C509.605,41.719 466.963,55.219 436.908,64.733 " fill="none" id="modules/bot-&gt;modules/db" style="stroke: #000000; stroke-width: 0.5;"/><polygon fill="#000000" points="431.823,66.343,441.6104,67.4413,436.59,64.8345,439.1968,59.814,431.823,66.343" style="stroke: #000000; stroke-width: 0.5;"/><!--MD5=[83cb7128f60bfdfe886f04847043a9af]
link modules/bot to modules/messages--><path d="M614.798,29.521 C633.947,34.787 654.96,43.979 668.317,60 C680.662,74.808 683.495,97.021 683.641,113.4324 " fill="none" id="modules/bot-&gt;modules/messages" style="stroke: #000000; stroke-width: 0.5;"/><polygon fill="#000000" points="683.598,118.7566,687.6714,109.7896,683.6389,113.7568,679.6717,109.7242,683.598,118.7566" style="stroke: #000000; stroke-width: 0.5;"/><!--MD5=[4116b0068da45f92a79f6aa52ba55d9d]
link _modules_commandHandler to modules/messages--><path d="M601.813,94.029 C616.472,101.49 633.921,110.37 648.82,117.9528 " fill="none" id="_modules_commandHandler-&gt;modules/messages" style="stroke: #000000; stroke-width: 0.5;"/><polygon fill="#000000" points="653.357,120.2614,647.1493,112.6152,648.9006,117.9941,643.5217,119.7454,653.357,120.2614" style="stroke: #000000; stroke-width: 0.5;"/><!--MD5=[3998e8af1e5e7a6937bad8ce2e2789fb]
link modules/db to config--><path d="M349.304,79.857 C250.752,83.913 44.6992,95.173 23.3166,119 C13.224,130.2465 13.2598,141.7214 23.3166,153 C42.2804,174.2676 232.817,185.0436 311.551,188.6162 " fill="none" id="modules/db-&gt;config" style="stroke: #000000; stroke-width: 0.5;"/><polygon fill="#000000" points="316.572,188.8411,307.7592,184.4439,311.577,188.6182,307.4027,192.436,316.572,188.8411" style="stroke: #000000; stroke-width: 0.5;"/><!--MD5=[c7bb6f1d42fc29ccd6a0cca51eef389a]
link modules/db to _models_guildConfig--><path d="M359.636,85.08 C313.865,92.951 238.234,106.2421 173.317,119 C172.925,119.077 172.532,119.1544 172.138,119.2322 " fill="none" id="modules/db-&gt;_models_guildConfig" style="stroke: #000000; stroke-width: 0.5;"/><polygon fill="#000000" points="166.963,120.2628,176.5712,122.4269,171.8666,119.2857,175.0078,114.5811,166.963,120.2628" style="stroke: #000000; stroke-width: 0.5;"/><!--MD5=[6fe2218fa7423ccf20837c99db94fd5f]
link modules/db to _models_guildData--><path d="M373.248,88.19 C351.078,96.239 319.602,107.667 293.301,117.2161 " fill="none" id="modules/db-&gt;_models_guildData" style="stroke: #000000; stroke-width: 0.5;"/><polygon fill="#000000" points="288.453,118.976,298.2777,119.6655,293.153,117.2702,295.5484,112.1455,288.453,118.976" style="stroke: #000000; stroke-width: 0.5;"/><!--MD5=[0f8128922581f04c47dabe708d0d9318]
link modules/db to _models_userConfig--><path d="M398.772,90.088 C397.341,96.886 395.512,105.5722 393.845,113.4914 " fill="none" id="modules/db-&gt;_models_userConfig" style="stroke: #000000; stroke-width: 0.5;"/><polygon fill="#000000" points="392.723,118.8186,398.4912,110.8356,393.753,113.9258,390.6628,109.1876,392.723,118.8186" style="stroke: #000000; stroke-width: 0.5;"/><!--MD5=[9323fad93b8a2d7b5c469ee9c473ee1c]
link modules/db to _models_userData--><path d="M425.835,88.588 C444.204,96.52 469.781,107.5643 491.377,116.8897 " fill="none" id="modules/db-&gt;_models_userData" style="stroke: #000000; stroke-width: 0.5;"/><polygon fill="#000000" points="496.204,118.9739,489.528,111.733,491.6139,116.9912,486.3557,119.0771,496.204,118.9739" style="stroke: #000000; stroke-width: 0.5;"/><!--MD5=[b9ca8fce737f63cc10e4c6522244751b]
link modules/db to modules/messages--><path d="M434.703,87.22 C444.534,89.507 455.312,91.903 465.317,94 C523.329,106.1613 538.144,107.6321 596.317,119 C604.375,120.5747 612.886,122.2567 621.301,123.9166 " fill="none" id="modules/db-&gt;modules/messages" style="stroke: #000000; stroke-width: 0.5;"/><polygon fill="#000000" points="626.523,124.9461,618.4667,119.2808,621.6174,123.979,616.9193,127.1298,626.523,124.9461" style="stroke: #000000; stroke-width: 0.5;"/><!--MD5=[f9edc22682bae62382cd7ba48ef83762]
link modules/messages to modules/db--><path d="M632.449,123.5754 C624.722,122.0269 616.823,120.4669 609.317,119 C551.144,107.6321 536.329,106.1613 478.317,94 C467.736,91.782 456.291,89.231 445.51,86.826 " fill="none" id="modules/messages-&gt;modules/db" style="stroke: #000000; stroke-width: 0.5;"/><polygon fill="#000000" points="440.609,85.734,448.5222,91.5975,445.4891,86.8226,450.264,83.7894,440.609,85.734" style="stroke: #000000; stroke-width: 0.5;"/><!--MD5=[73bb008684a3646560e32748b1484d31]
link modules/messages to config--><path d="M629.893,147.9091 C620.718,149.697 611.251,151.4647 602.317,153 C521.945,166.8122 426.824,179.5803 377.936,185.8823 " fill="none" id="modules/messages-&gt;config" style="stroke: #000000; stroke-width: 0.5;"/><polygon fill="#000000" points="372.779,186.5452,382.2153,189.3657,377.7382,185.9081,381.1959,181.431,372.779,186.5452" style="stroke: #000000; stroke-width: 0.5;"/><!--MD5=[3e308a5dc5afafd661ce296838b44d74]
link <b>src</b> to config--><path d="M381.786,24.259 C309.654,31.198 60.022,59.256 13.3167,119 C4.0099,130.905 3.2406,141.7386 13.3167,153 C32.9701,174.9654 230.762,185.3772 311.384,188.7337 " fill="none" id="&lt;b&gt;src&lt;/b&gt;-&gt;config" style="stroke: #000000; stroke-width: 1.0;"/><polygon fill="#000000" points="316.521,188.9446,307.6932,184.5777,311.5252,188.7389,307.3641,192.5709,316.521,188.9446" style="stroke: #000000; stroke-width: 1.0;"/><!--MD5=[9b9d8e76c365dcd2656524e70d2489ae]
link <b>src</b> to modules/bot--><path d="M421.121,21.5 C450.779,21.5 480.437,21.5 510.095,21.5 " fill="none" id="&lt;b&gt;src&lt;/b&gt;-&gt;modules/bot" style="stroke: #000000; stroke-width: 1.0;"/><polygon fill="#000000" points="515.243,21.5,506.243,17.5,510.243,21.5,506.243,25.5,515.243,21.5" style="stroke: #000000; stroke-width: 1.0;"/><!--MD5=[a623b95dcddc6c2cc2cf75a71e14cefd]
link <b>src</b> to modules/db--><path d="M401.317,34.64 C401.317,41.754 401.317,50.856 401.317,58.71 " fill="none" id="&lt;b&gt;src&lt;/b&gt;-&gt;modules/db" style="stroke: #000000; stroke-width: 1.0;"/><polygon fill="#000000" points="401.317,63.908,405.317,54.908,401.317,58.908,397.317,54.908,401.317,63.908" style="stroke: #000000; stroke-width: 1.0;"/><script type="text/plantuml"><![CDATA[MD5=[525d68f9cd1c5ed0b9c06cb7d1652c42]
@startuml

scale max 1920 width
top to bottom direction

skinparam nodesep 13
skinparam ranksep 25
skinparam monochrome true
skinparam shadowing false
skinparam defaultFontName Tahoma
skinparam defaultFontSize 12
skinparam roundCorner 6
skinparam dpi 150
skinparam arrowColor black
skinparam arrowThickness 0.5
skinparam packageTitleAlignment left

skinparam usecase {
  borderThickness 0.5
}

skinparam rectangle {
  borderThickness 0.5
}

skinparam component {
  borderThickness 1
}


(<b>src</b>)
(config)
rectangle "models/guildConfig" as _models_guildConfig
rectangle "models/guildData" as _models_guildData
rectangle "models/userConfig" as _models_userConfig
rectangle "models/userData" as _models_userData
(modules/bot)
rectangle "modules/commandHandler" as _modules_commandHandler
(modules/db)
(modules/messages)


(modules/bot) --> (config)
(modules/bot) --> _modules_commandHandler
(modules/bot) --> (modules/db)
(modules/bot) --> (modules/messages)
_modules_commandHandler --> (modules/messages)
(modules/db) --> (config)
(modules/db) --> _models_guildConfig
(modules/db) --> _models_guildData
(modules/db) --> _models_userConfig
(modules/db) --> _models_userData
(modules/db) --> (modules/messages)
(modules/messages) --> (config)
(modules/messages) --> (modules/db)
(<b>src</b>) -[thickness=1]> (config)
(<b>src</b>) -[thickness=1]> (modules/bot)
(<b>src</b>) -[thickness=1]> (modules/db)

@enduml


' View and edit on https://arkit.pro
]]></script></g></svg>