<?xml version="1.0" encoding="UTF-8" standalone="no"?><svg xmlns="http://www.w3.org/2000/svg" xmlns:xlink="http://www.w3.org/1999/xlink" contentScriptType="application/ecmascript" contentStyleType="text/css" height="340px" preserveAspectRatio="none" style="width:446px;height:340px;" version="1.1" viewBox="0 0 446 340" width="446px" zoomAndPan="magnify"><defs/><g><!--MD5=[a6f11bb19cee6b13000111f5ad685e8b]
cluster Dependencies--><path d="M25,246 L127,246 A4.5,4.5 0 0 1 130,249 L137,265.9688 L371,265.9688 A3,3 0 0 1 374,268.9688 L374,325 A3,3 0 0 1 371,328 L25,328 A3,3 0 0 1 22,325 L22,249 A3,3 0 0 1 25,246 " fill="#FFFFFF" style="stroke: #000000; stroke-width: 1.5;"/><line style="stroke: #000000; stroke-width: 1.5;" x1="22" x2="137" y1="265.9688" y2="265.9688"/><text fill="#000000" font-family="Tahoma, sans-serif" font-size="12" font-weight="bold" lengthAdjust="spacingAndGlyphs" textLength="102" x="26" y="259.1387">Dependencies</text><!--MD5=[bb337c850ab7455b047daf06f5530aba]
entity better-sqlite3--><rect fill="#F8F8F8" height="33.9688" rx="3" ry="3" style="stroke: #383838; stroke-width: 1.0;" width="105" x="38.5" y="278"/><rect fill="#F8F8F8" height="5" style="stroke: #383838; stroke-width: 1.0;" width="10" x="33.5" y="283"/><rect fill="#F8F8F8" height="5" style="stroke: #383838; stroke-width: 1.0;" width="10" x="33.5" y="301.9688"/><text fill="#000000" font-family="Tahoma, sans-serif" font-size="12" lengthAdjust="spacingAndGlyphs" textLength="85" x="48.5" y="299.1387">better-sqlite3</text><!--MD5=[82b5a202f6d660fa8e98a122f91e5835]
entity discord--><rect fill="#F8F8F8" height="33.9688" rx="3" ry="3" style="stroke: #383838; stroke-width: 1.0;" width="66" x="233" y="278"/><rect fill="#F8F8F8" height="5" style="stroke: #383838; stroke-width: 1.0;" width="10" x="228" y="283"/><rect fill="#F8F8F8" height="5" style="stroke: #383838; stroke-width: 1.0;" width="10" x="228" y="301.9688"/><text fill="#000000" font-family="Tahoma, sans-serif" font-size="12" lengthAdjust="spacingAndGlyphs" textLength="46" x="243" y="299.1387">discord</text><!--MD5=[b84d8dbe3cf51322a9824c71d57d534f]
entity dotenv--><rect fill="#F8F8F8" height="33.9688" rx="3" ry="3" style="stroke: #383838; stroke-width: 1.0;" width="63" x="156.5" y="278"/><rect fill="#F8F8F8" height="5" style="stroke: #383838; stroke-width: 1.0;" width="10" x="151.5" y="283"/><rect fill="#F8F8F8" height="5" style="stroke: #383838; stroke-width: 1.0;" width="10" x="151.5" y="301.9688"/><text fill="#000000" font-family="Tahoma, sans-serif" font-size="12" lengthAdjust="spacingAndGlyphs" textLength="43" x="166.5" y="299.1387">dotenv</text><!--MD5=[c0cd64a1b408ece1273c15cbb42ecb48]
entity pino--><rect fill="#F8F8F8" height="33.9688" rx="3" ry="3" style="stroke: #383838; stroke-width: 1.0;" width="46" x="312" y="278"/><rect fill="#F8F8F8" height="5" style="stroke: #383838; stroke-width: 1.0;" width="10" x="307" y="283"/><rect fill="#F8F8F8" height="5" style="stroke: #383838; stroke-width: 1.0;" width="10" x="307" y="301.9688"/><text fill="#000000" font-family="Tahoma, sans-serif" font-size="12" lengthAdjust="spacingAndGlyphs" textLength="26" x="322" y="299.1387">pino</text><ellipse cx="108.7635" cy="21.3774" fill="#F8F8F8" rx="19.2635" ry="12.8774" style="stroke: #383838; stroke-width: 0.5;"/><text fill="#000000" font-family="Tahoma, sans-serif" font-size="12" font-weight="bold" lengthAdjust="spacingAndGlyphs" textLength="23" x="97.2635" y="24.8618">src</text><ellipse cx="188.163" cy="190.8774" fill="#F8F8F8" rx="29.163" ry="12.8774" style="stroke: #383838; stroke-width: 0.5;"/><text fill="#000000" font-family="Tahoma, sans-serif" font-size="12" lengthAdjust="spacingAndGlyphs" textLength="37" x="169.663" y="194.3618">config</text><ellipse cx="197.9787" cy="21.3957" fill="#F8F8F8" rx="54.9787" ry="13.3957" style="stroke: #383838; stroke-width: 0.5;"/><text fill="#000000" font-family="Tahoma, sans-serif" font-size="12" lengthAdjust="spacingAndGlyphs" textLength="77" x="159.4787" y="24.8801">modules/bot</text><!--MD5=[6f212ac7842da82386c32ff334a0a8e2]
entity _modules_commandHandler--><rect fill="#F8F8F8" height="33.9688" rx="3" ry="3" style="stroke: #000000; stroke-width: 0.5;" width="184" x="220" y="60"/><text fill="#000000" font-family="Tahoma, sans-serif" font-size="12" lengthAdjust="spacingAndGlyphs" textLength="164" x="230" y="81.1387">modules/commandHandler</text><!--MD5=[dfae093e4a031c1724ef71c34f432541]
entity _modules_db--><rect fill="#F8F8F8" height="33.9688" rx="3" ry="3" style="stroke: #000000; stroke-width: 0.5;" width="92" x="61" y="60"/><text fill="#000000" font-family="Tahoma, sans-serif" font-size="12" lengthAdjust="spacingAndGlyphs" textLength="72" x="71" y="81.1387">modules/db</text><ellipse cx="265.9229" cy="135.8846" fill="#F8F8F8" rx="72.4229" ry="16.8846" style="stroke: #383838; stroke-width: 0.5;"/><text fill="#000000" font-family="Tahoma, sans-serif" font-size="12" lengthAdjust="spacingAndGlyphs" textLength="120" x="205.9229" y="139.369">modules/messages</text><!--MD5=[730103a9e4a14f69d69e2494cb58a724]
link config to discord--><path d="M197.913,203.539 C205.72,212.734 216.783,226.009 226,238 C234.871,249.5402 244.357,262.7791 251.865,273.4864 " fill="none" id="config-&gt;discord" style="stroke: #000000; stroke-width: 0.5;"/><polygon fill="#000000" points="254.744,277.6066,252.8677,267.9381,251.88,273.5081,246.3101,272.5205,254.744,277.6066" style="stroke: #000000; stroke-width: 0.5;"/><!--MD5=[637a40a99d58a9326022a4d3930d8f1a]
link config to dotenv--><path d="M188,204.101 C188,221.031 188,252.04 188,272.8378 " fill="none" id="config-&gt;dotenv" style="stroke: #000000; stroke-width: 0.5;"/><polygon fill="#000000" points="188,277.8906,192,268.8906,188,272.8906,184,268.8906,188,277.8906" style="stroke: #000000; stroke-width: 0.5;"/><!--MD5=[133eb2d16b1e2ad2e3d3126b8e262a63]
link modules/bot to config--><path d="M196.078,35.26 C193.408,53.693 188.712,88.866 187,119 C186.143,134.087 186.796,137.89 187,153 C187.085,159.297 187.252,166.195 187.425,172.311 " fill="none" id="modules/bot-&gt;config" style="stroke: #000000; stroke-width: 0.5;"/><polygon fill="#000000" points="187.583,177.668,191.3164,168.5542,187.4358,172.6702,183.3198,168.7896,187.583,177.668" style="stroke: #000000; stroke-width: 0.5;"/><!--MD5=[9224c579802c65ec3b46ec09f31b3da9]
link modules/bot to discord--><path d="M251.316,25.032 C306.964,28.829 389.125,38.067 411,60 C434.89,83.953 424,101.17 424,135 C424,135 424,135 424,192 C424,248.7028 349.597,202.981 305,238 C292.99,247.4308 283.187,261.5607 276.414,273.2672 " fill="none" id="modules/bot-&gt;discord" style="stroke: #000000; stroke-width: 0.5;"/><polygon fill="#000000" points="273.878,277.7844,281.7713,271.8941,276.3253,273.4243,274.7951,267.9783,273.878,277.7844" style="stroke: #000000; stroke-width: 0.5;"/><!--MD5=[6b42ddcc1976056bbd42698cb24c48e0]
link modules/bot to _modules_commandHandler--><path d="M221.898,33.715 C236.699,40.661 256.056,49.745 273.033,57.713 " fill="none" id="modules/bot-&gt;_modules_commandHandler" style="stroke: #000000; stroke-width: 0.5;"/><polygon fill="#000000" points="277.753,59.928,271.3046,52.4837,273.2265,57.804,267.9062,59.726,277.753,59.928" style="stroke: #000000; stroke-width: 0.5;"/><!--MD5=[b95da8d463e988a6f5a51e77ef5c5c75]
link modules/bot to _modules_db--><path d="M178.254,34.109 C166.701,40.901 151.845,49.635 138.69,57.369 " fill="none" id="modules/bot-&gt;_modules_db" style="stroke: #000000; stroke-width: 0.5;"/><polygon fill="#000000" points="134.301,59.949,144.0867,58.8353,138.6111,57.4146,140.0317,51.9391,134.301,59.949" style="stroke: #000000; stroke-width: 0.5;"/><!--MD5=[83cb7128f60bfdfe886f04847043a9af]
link modules/bot to modules/messages--><path d="M198.066,35.099 C198.695,50.193 201.554,75.727 213,94 C218.625,102.981 226.958,110.762 235.359,117.059 " fill="none" id="modules/bot-&gt;modules/messages" style="stroke: #000000; stroke-width: 0.5;"/><polygon fill="#000000" points="239.477,120.031,234.5196,111.5208,235.4225,117.1051,229.8381,118.008,239.477,120.031" style="stroke: #000000; stroke-width: 0.5;"/><!--MD5=[721640d334168db864acbbdbe06adbfc]
link _modules_commandHandler to discord--><path d="M329.396,94.325 C335.569,101.266 341.78,109.865 345,119 C350.023,133.252 348.817,138.379 345,153 C338.447,178.101 300.146,240.502 279.378,273.2244 " fill="none" id="_modules_commandHandler-&gt;discord" style="stroke: #000000; stroke-width: 0.5;"/><polygon fill="#000000" points="276.447,277.829,284.6548,272.3854,279.1323,273.6113,277.9065,268.0889,276.447,277.829" style="stroke: #000000; stroke-width: 0.5;"/><!--MD5=[4116b0068da45f92a79f6aa52ba55d9d]
link _modules_commandHandler to modules/messages--><path d="M298.941,94.181 C293.75,100.614 287.722,108.083 282.253,114.86 " fill="none" id="_modules_commandHandler-&gt;modules/messages" style="stroke: #000000; stroke-width: 0.5;"/><polygon fill="#000000" points="278.932,118.975,287.6966,114.4827,282.0718,115.0838,281.4707,109.459,278.932,118.975" style="stroke: #000000; stroke-width: 0.5;"/><!--MD5=[7d9fcef0d65b38333d1456a24d8f5b91]
link _modules_db to better-sqlite3--><path d="M105.7974,94.235 C102.9469,132.717 95.7798,229.472 92.5825,272.6357 " fill="none" id="_modules_db-&gt;better-sqlite3" style="stroke: #000000; stroke-width: 0.5;"/><polygon fill="#000000" points="92.1947,277.8711,96.8487,269.1912,92.5641,272.8848,88.8706,268.6002,92.1947,277.8711" style="stroke: #000000; stroke-width: 0.5;"/><!--MD5=[af0f861133c824bc4345e34692448577]
link _modules_db to config--><path d="M118.605,94.047 C134.043,115.392 161.167,152.898 176.534,174.145 " fill="none" id="_modules_db-&gt;config" style="stroke: #000000; stroke-width: 0.5;"/><polygon fill="#000000" points="179.626,178.421,177.5931,168.7842,176.6959,174.3695,171.1107,173.4723,179.626,178.421" style="stroke: #000000; stroke-width: 0.5;"/><!--MD5=[50ae0326e34bff94bc34e4392bd29c4b]
link _modules_db to discord--><path d="M108.766,94.387 C112.4,120.622 122.975,172.312 152,204 C176.447,230.69 198.1,214.944 226,238 C237.789,247.7425 247.79,261.7436 254.843,273.3085 " fill="none" id="_modules_db-&gt;discord" style="stroke: #000000; stroke-width: 0.5;"/><polygon fill="#000000" points="257.493,277.7696,256.3352,267.989,254.9392,273.471,249.4573,272.075,257.493,277.7696" style="stroke: #000000; stroke-width: 0.5;"/><!--MD5=[280f7d044ebade64abb42647b63bd538]
link _modules_db to modules/messages--><path d="M147.621,94.029 C169.945,102.237 197.666,112.164 220.688,120.191 " fill="none" id="_modules_db-&gt;modules/messages" style="stroke: #000000; stroke-width: 0.5;"/><polygon fill="#000000" points="225.526,121.874,218.3398,115.1392,220.8036,120.2313,215.7114,122.6951,225.526,121.874" style="stroke: #000000; stroke-width: 0.5;"/><!--MD5=[ebb42b702664e01cdc66fc0ff5586781]
link modules/messages to _modules_db--><path d="M231.623,121.031 C210.05,113.011 181.903,102.894 157.796,94.485 " fill="none" id="modules/messages-&gt;_modules_db" style="stroke: #000000; stroke-width: 0.5;"/><polygon fill="#000000" points="153.032,92.827,160.2176,99.5625,157.7543,94.4702,162.8466,92.0069,153.032,92.827" style="stroke: #000000; stroke-width: 0.5;"/><!--MD5=[73bb008684a3646560e32748b1484d31]
link modules/messages to config--><path d="M243.439,152.33 C232,160.103 218.251,169.445 207.307,176.881 " fill="none" id="modules/messages-&gt;config" style="stroke: #000000; stroke-width: 0.5;"/><polygon fill="#000000" points="203.109,179.734,212.8012,177.9846,207.2447,176.924,208.3053,171.3675,203.109,179.734" style="stroke: #000000; stroke-width: 0.5;"/><!--MD5=[d98807945e79d78111089747308cdab1]
link modules/messages to discord--><path d="M266,153.21 C266,181.65 266,240.532 266,272.3951 " fill="none" id="modules/messages-&gt;discord" style="stroke: #000000; stroke-width: 0.5;"/><polygon fill="#000000" points="266,277.6426,270,268.6426,266,272.6426,262,268.6426,266,277.6426" style="stroke: #000000; stroke-width: 0.5;"/><!--MD5=[ae280f0c849e31b6c807c8679f03e568]
link modules/messages to pino--><path d="M273.124,153.21 C285.675,181.768 311.716,241.019 325.678,272.7887 " fill="none" id="modules/messages-&gt;pino" style="stroke: #000000; stroke-width: 0.5;"/><polygon fill="#000000" points="327.811,277.6426,327.8516,267.7938,325.7992,273.0652,320.5278,271.0127,327.811,277.6426" style="stroke: #000000; stroke-width: 0.5;"/><!--MD5=[9b9d8e76c365dcd2656524e70d2489ae]
link <b>src</b> to modules/bot--><path d="M128.816,21.5 C131.744,21.5 134.672,21.5 137.599,21.5 " fill="none" id="&lt;b&gt;src&lt;/b&gt;-&gt;modules/bot" style="stroke: #000000; stroke-width: 1.0;"/><polygon fill="#000000" points="142.869,21.5,133.869,17.5,137.869,21.5,133.869,25.5,142.869,21.5" style="stroke: #000000; stroke-width: 1.0;"/><!--MD5=[0dad394a8400fb55472dd8a164b59b47]
link <b>src</b> to _modules_db--><path d="M108.546,34.64 C108.326,40.536 108.054,47.798 107.801,54.583 " fill="none" id="&lt;b&gt;src&lt;/b&gt;-&gt;_modules_db" style="stroke: #000000; stroke-width: 1.0;"/><polygon fill="#000000" points="107.611,59.648,111.9425,50.8028,107.7967,54.6514,103.948,50.5057,107.611,59.648" style="stroke: #000000; stroke-width: 1.0;"/><script type="text/plantuml"><![CDATA[MD5=[9e4ac5c7c540ce1f52c1861283bc10e7]
@startuml

scale max 1920 width
top to bottom direction

skinparam nodesep 13
skinparam ranksep 25
skinparam monochrome true
skinparam shadowing false
skinparam defaultFontName Tahoma
skinparam defaultFontSize 12
skinparam roundCorner 6
skinparam dpi 150
skinparam arrowColor black
skinparam arrowThickness 0.5
skinparam packageTitleAlignment left

skinparam usecase {
  borderThickness 0.5
}

skinparam rectangle {
  borderThickness 0.5
}

skinparam component {
  borderThickness 1
}


(<b>src</b>)
(config)
(modules/bot)
rectangle "modules/commandHandler" as _modules_commandHandler
rectangle "modules/db" as _modules_db
(modules/messages)

package "Dependencies" {
  [better-sqlite3]
  [discord]
  [dotenv]
  [pino]
}

(config) --> [discord]
(config) --> [dotenv]
(modules/bot) --> (config)
(modules/bot) ----> [discord]
(modules/bot) --> _modules_commandHandler
(modules/bot) --> _modules_db
(modules/bot) --> (modules/messages)
_modules_commandHandler ----> [discord]
_modules_commandHandler --> (modules/messages)
_modules_db ----> [better-sqlite3]
_modules_db --> (config)
_modules_db ----> [discord]
_modules_db --> (modules/messages)
(modules/messages) --> (config)
(modules/messages) ----> [discord]
(modules/messages) --> _modules_db
(modules/messages) ----> [pino]
(<b>src</b>) -[thickness=1]> (modules/bot)
(<b>src</b>) -[thickness=1]> _modules_db

@enduml


' View and edit on https://arkit.pro
]]></script></g></svg>