<?xml version="1.0" encoding="UTF-8" standalone="no"?><svg xmlns="http://www.w3.org/2000/svg" xmlns:xlink="http://www.w3.org/1999/xlink" contentScriptType="application/ecmascript" contentStyleType="text/css" height="207px" preserveAspectRatio="none" style="width:755px;height:207px;" version="1.1" viewBox="0 0 755 207" width="755px" zoomAndPan="magnify"><defs/><g><ellipse cx="222.5922" cy="21.742" fill="#F8F8F8" rx="17.8492" ry="13.242" style="stroke: #383838; stroke-width: 0.5;"/><text fill="#000000" font-family="Tahoma, sans-serif" font-size="12" font-weight="bold" lengthAdjust="spacingAndGlyphs" textLength="21" x="212.0922" y="25.4842">src</text><ellipse cx="335.6988" cy="183.242" fill="#F8F8F8" rx="28.4558" ry="13.242" style="stroke: #383838; stroke-width: 0.5;"/><text fill="#000000" font-family="Tahoma, sans-serif" font-size="12" lengthAdjust="spacingAndGlyphs" textLength="36" x="317.6988" y="186.9842">config</text><!--MD5=[e89cb3d651ad2a6a591ef3194ebcca21]
entity _models_guildConfig--><rect fill="#F8F8F8" height="34.4844" rx="3" ry="3" style="stroke: #000000; stroke-width: 0.5;" width="132" x="33.7427" y="111"/><text fill="#000000" font-family="Tahoma, sans-serif" font-size="12" lengthAdjust="spacingAndGlyphs" textLength="112" x="43.7427" y="133.0059">models/guildConfig</text><!--MD5=[47294ddc332c2aeff8bb5a9e9221514e]
entity _models_guildData--><rect fill="#F8F8F8" height="34.4844" rx="3" ry="3" style="stroke: #000000; stroke-width: 0.5;" width="122" x="177.743" y="111"/><text fill="#000000" font-family="Tahoma, sans-serif" font-size="12" lengthAdjust="spacingAndGlyphs" textLength="102" x="187.743" y="133.0059">models/guildData</text><!--MD5=[668fb606f2e4d4b44741fca63f0ea521]
entity _models_userConfig--><rect fill="#F8F8F8" height="34.4844" rx="3" ry="3" style="stroke: #000000; stroke-width: 0.5;" width="130" x="311.743" y="111"/><text fill="#000000" font-family="Tahoma, sans-serif" font-size="12" lengthAdjust="spacingAndGlyphs" textLength="110" x="321.743" y="133.0059">models/userConfig</text><!--MD5=[cfbd38191c2772d4f40c33dbc4a38bbf]
entity _models_userData--><rect fill="#F8F8F8" height="34.4844" rx="3" ry="3" style="stroke: #000000; stroke-width: 0.5;" width="120" x="453.743" y="111"/><text fill="#000000" font-family="Tahoma, sans-serif" font-size="12" lengthAdjust="spacingAndGlyphs" textLength="100" x="463.743" y="133.0059">models/userData</text><ellipse cx="307.514" cy="21.3542" fill="#F8F8F8" rx="54.771" ry="13.3542" style="stroke: #383838; stroke-width: 0.5;"/><text fill="#000000" font-family="Tahoma, sans-serif" font-size="12" lengthAdjust="spacingAndGlyphs" textLength="74" x="270.514" y="25.0964">modules/bot</text><ellipse cx="307.5334" cy="73.242" fill="#F8F8F8" rx="51.7904" ry="13.242" style="stroke: #383838; stroke-width: 0.5;"/><text fill="#000000" font-family="Tahoma, sans-serif" font-size="12" lengthAdjust="spacingAndGlyphs" textLength="69" x="273.0334" y="76.9842">modules/db</text><ellipse cx="656.6951" cy="128.0904" fill="#F8F8F8" rx="70.9521" ry="16.5904" style="stroke: #383838; stroke-width: 0.5;"/><text fill="#000000" font-family="Tahoma, sans-serif" font-size="12" lengthAdjust="spacingAndGlyphs" textLength="115" x="599.1951" y="131.8326">modules/messages</text><!--MD5=[133eb2d16b1e2ad2e3d3126b8e262a63]
link modules/bot to config--><path d="M360.463,25.422 C463.848,32.37 687.203,53.798 733.743,111 C743.28,122.7216 743.921,133.8312 733.743,145 C709.371,171.7426 460.558,179.4689 369.173,181.4141 " fill="none" id="modules/bot-&gt;config" style="stroke: #000000; stroke-width: 0.5;"/><polygon fill="#000000" points="364.161,181.5184,373.2425,185.3298,369.1599,181.4141,373.0756,177.3316,364.161,181.5184" style="stroke: #000000; stroke-width: 0.5;"/><!--MD5=[2b893cabbacdb484a010dec1a05b5cf4]
link modules/bot to modules/db--><path d="M303.774,34.991 C303.208,40.988 303.094,48.269 303.433,54.781 " fill="none" id="modules/bot-&gt;modules/db" style="stroke: #000000; stroke-width: 0.5;"/><polygon fill="#000000" points="303.825,60.025,307.1455,50.7528,303.4536,55.0388,299.1676,51.3469,303.825,60.025" style="stroke: #000000; stroke-width: 0.5;"/><!--MD5=[c592f996c6897e394d0fe2d0eed69799]
link modules/db to modules/bot--><path d="M311.661,60.025 C312.254,54.105 312.394,46.84 312.08,40.285 " fill="none" id="modules/db-&gt;modules/bot" style="stroke: #000000; stroke-width: 0.5;"/><polygon fill="#000000" points="311.711,34.991,308.3481,44.2479,312.0595,39.9788,316.3286,43.6903,311.711,34.991" style="stroke: #000000; stroke-width: 0.5;"/><!--MD5=[3998e8af1e5e7a6937bad8ce2e2789fb]
link modules/db to config--><path d="M255.447,73.072 C182.74,73.031 56.7511,77.906 27.7427,111 C17.782,122.3635 17.715,133.6956 27.7427,145 C45.7389,165.2874 226.077,176.5552 302.161,180.4379 " fill="none" id="modules/db-&gt;config" style="stroke: #000000; stroke-width: 0.5;"/><polygon fill="#000000" points="307.455,180.7048,298.6675,176.2573,302.4613,180.4534,298.2652,184.2472,307.455,180.7048" style="stroke: #000000; stroke-width: 0.5;"/><!--MD5=[c7bb6f1d42fc29ccd6a0cca51eef389a]
link modules/db to _models_guildConfig--><path d="M272.928,82.871 C244.379,90.146 203.1,100.6638 168.003,109.6067 " fill="none" id="modules/db-&gt;_models_guildConfig" style="stroke: #000000; stroke-width: 0.5;"/><polygon fill="#000000" points="162.872,110.9142,172.5809,112.5686,167.7173,109.6799,170.606,104.8162,162.872,110.9142" style="stroke: #000000; stroke-width: 0.5;"/><!--MD5=[6fe2218fa7423ccf20837c99db94fd5f]
link modules/db to _models_guildData--><path d="M292.771,85.5 C284.309,92 273.509,100.2954 263.793,107.7583 " fill="none" id="modules/db-&gt;_models_guildData" style="stroke: #000000; stroke-width: 0.5;"/><polygon fill="#000000" points="259.706,110.8982,269.2801,108.5881,263.6713,107.8525,264.407,102.2437,259.706,110.8982" style="stroke: #000000; stroke-width: 0.5;"/><!--MD5=[0f8128922581f04c47dabe708d0d9318]
link modules/db to _models_userConfig--><path d="M322.715,85.5 C331.177,92 341.976,100.2954 351.692,107.7583 " fill="none" id="modules/db-&gt;_models_userConfig" style="stroke: #000000; stroke-width: 0.5;"/><polygon fill="#000000" points="355.78,110.8982,351.079,102.2437,351.8147,107.8525,346.2059,108.5881,355.78,110.8982" style="stroke: #000000; stroke-width: 0.5;"/><!--MD5=[9323fad93b8a2d7b5c469ee9c473ee1c]
link modules/db to _models_userData--><path d="M342.223,82.871 C371.152,90.314 413.28,101.1529 448.544,110.2257 " fill="none" id="modules/db-&gt;_models_userData" style="stroke: #000000; stroke-width: 0.5;"/><polygon fill="#000000" points="453.695,111.5509,445.9753,105.4348,448.8527,110.3052,443.9822,113.1825,453.695,111.5509" style="stroke: #000000; stroke-width: 0.5;"/><!--MD5=[b9ca8fce737f63cc10e4c6522244751b]
link modules/db to modules/messages--><path d="M353.612,79.25 C407.801,85.681 500.599,97.4113 579.743,111 C586.959,112.239 594.531,113.661 601.992,115.1349 " fill="none" id="modules/db-&gt;modules/messages" style="stroke: #000000; stroke-width: 0.5;"/><polygon fill="#000000" points="607.135,116.162,599.0919,110.4779,602.2317,115.1834,597.5262,118.3232,607.135,116.162" style="stroke: #000000; stroke-width: 0.5;"/><!--MD5=[73bb008684a3646560e32748b1484d31]
link modules/messages to config--><path d="M606.701,139.8097 C597.741,141.6278 588.478,143.4314 579.743,145 C504.013,158.5995 414.463,171.3262 367.746,177.7126 " fill="none" id="modules/messages-&gt;config" style="stroke: #000000; stroke-width: 0.5;"/><polygon fill="#000000" points="362.539,178.4225,371.997,181.1695,367.4931,177.7468,370.9159,173.2429,362.539,178.4225" style="stroke: #000000; stroke-width: 0.5;"/><!--MD5=[3e308a5dc5afafd661ce296838b44d74]
link <b>src</b> to config--><path d="M205.344,25.561 C145.941,36.699 -41.9481,77.961 17.7427,145 C36.4442,166.0036 224.338,176.923 302.21,180.5752 " fill="none" id="&lt;b&gt;src&lt;/b&gt;-&gt;config" style="stroke: #000000; stroke-width: 1.0;"/><polygon fill="#000000" points="307.623,180.8256,298.8178,176.4133,302.6284,180.5942,298.4475,184.4047,307.623,180.8256" style="stroke: #000000; stroke-width: 1.0;"/><!--MD5=[9b9d8e76c365dcd2656524e70d2489ae]
link <b>src</b> to modules/bot--><path d="M241.004,21.5 C243.204,21.5 245.404,21.5 247.603,21.5 " fill="none" id="&lt;b&gt;src&lt;/b&gt;-&gt;modules/bot" style="stroke: #000000; stroke-width: 1.0;"/><polygon fill="#000000" points="252.736,21.5,243.736,17.5,247.736,21.5,243.736,25.5,252.736,21.5" style="stroke: #000000; stroke-width: 1.0;"/><!--MD5=[a623b95dcddc6c2cc2cf75a71e14cefd]
link <b>src</b> to modules/db--><path d="M236.399,30.453 C249.158,37.883 268.484,49.137 283.804,58.059 " fill="none" id="&lt;b&gt;src&lt;/b&gt;-&gt;modules/db" style="stroke: #000000; stroke-width: 1.0;"/><polygon fill="#000000" points="288.418,60.746,282.6536,52.7603,284.0972,58.2298,278.6277,59.6735,288.418,60.746" style="stroke: #000000; stroke-width: 1.0;"/><script type="text/plantuml"><![CDATA[MD5=[bef8fd6948f3c389ce69c591b793cf06]
@startuml

scale max 1920 width
top to bottom direction

skinparam nodesep 12
skinparam ranksep 25
skinparam monochrome true
skinparam shadowing false
skinparam defaultFontName Tahoma
skinparam defaultFontSize 12
skinparam roundCorner 6
skinparam dpi 150
skinparam arrowColor black
skinparam arrowThickness 0.5
skinparam packageTitleAlignment left

skinparam usecase {
  borderThickness 0.5
}

skinparam rectangle {
  borderThickness 0.5
}

skinparam component {
  borderThickness 1
}


(<b>src</b>)
(config)
rectangle "models/guildConfig" as _models_guildConfig
rectangle "models/guildData" as _models_guildData
rectangle "models/userConfig" as _models_userConfig
rectangle "models/userData" as _models_userData
(modules/bot)
(modules/db)
(modules/messages)


(modules/bot) --> (config)
(modules/bot) --> (modules/db)
(modules/db) --> (config)
(modules/db) --> _models_guildConfig
(modules/db) --> _models_guildData
(modules/db) --> _models_userConfig
(modules/db) --> _models_userData
(modules/db) --> (modules/bot)
(modules/db) --> (modules/messages)
(modules/messages) --> (config)
(<b>src</b>) -[thickness=1]> (config)
(<b>src</b>) -[thickness=1]> (modules/bot)
(<b>src</b>) -[thickness=1]> (modules/db)

@enduml


' View and edit on https://arkit.pro
]]></script></g></svg>